<svg width="644" height="273" viewBox="0 0 644 273" fill="none" xmlns="http://www.w3.org/2000/svg">
<path d="M643.567 208.892C643.567 209.093 499.489 209.241 321.797 209.241C144.105 209.241 0 209.147 0 208.892C0 208.636 144.038 208.542 321.797 208.542C499.556 208.542 643.567 208.757 643.567 208.892Z" fill="#2D214A"/>
<path d="M449.7 148.793C449.7 148.793 438.786 149.383 434.584 151.034C430.383 152.686 410.193 162.324 410.193 162.324C410.193 162.324 382.835 173.989 377.372 177.09C370.391 181.023 354.887 185.44 357.786 209.724H384.943L396.219 192.541L409.227 193.226L434.625 209.039H537.049H610.665C610.665 209.039 613.753 184.017 601.067 173.372C588.382 162.727 538.673 151.383 538.673 151.383C538.673 151.383 521.222 147.665 516.953 147.665L449.7 148.793Z" fill="#FF284F"/>
<g opacity="0.3">
<path opacity="0.3" d="M430.879 184.084C434.301 183.413 437.848 183.864 440.992 185.371C444.136 186.878 446.71 189.359 448.33 192.447C449.673 195.132 450.304 198.273 452.599 200.152C454.895 202.031 457.781 202.085 460.586 202.152L483.098 202.676C485.014 202.897 486.955 202.591 488.709 201.79C491.475 200.233 492.253 196.716 493.556 193.816C496.036 188.69 500.433 184.746 505.798 182.835C511.147 180.971 516.893 180.549 522.457 181.614C526.108 182.231 530.256 183.211 533.196 180.996C535.129 179.546 535.975 177.103 537.223 175.049C538.472 172.996 540.848 171.116 543.143 171.881C546.231 172.902 546.835 177.936 550.057 178.365C551.48 178.553 552.822 177.707 554.218 177.385C555.614 177.063 566.689 174.445 566.568 175.882C566.568 175.882 556.863 181.144 556.312 181.627C545.358 191.252 534.31 200.259 523.356 209.884L419.228 208.717L430.879 184.084Z" fill="black"/>
</g>
<path d="M542.257 163.398C541.978 163.34 541.695 163.309 541.411 163.304C541.035 163.343 540.672 163.467 540.351 163.667C540.03 163.867 539.759 164.138 539.558 164.458C538.127 166.664 536.998 169.053 536.202 171.56C535.182 175.155 534.649 178.871 534.618 182.608C534.324 181.528 534.211 180.408 534.283 179.292C534.293 176.594 534.718 173.913 535.545 171.345C536.348 168.759 537.573 166.323 539.169 164.136C539.429 163.787 539.767 163.505 540.157 163.311C540.546 163.117 540.976 163.018 541.411 163.022C542.028 163.076 542.283 163.371 542.257 163.398Z" fill="#2D214A"/>
<path d="M430.556 190.098C430.315 189.678 430.135 189.226 430.019 188.755C429.671 187.478 429.415 186.177 429.254 184.863C428.813 180.522 428.75 176.152 429.066 171.801C429.375 166.713 429.899 162.136 430.409 158.82C430.637 157.169 430.852 155.84 431.013 154.927C431.062 154.44 431.175 153.962 431.348 153.504C431.377 153.989 431.354 154.475 431.281 154.954C431.174 156.042 431.053 157.344 430.905 158.887C430.556 162.203 430.113 166.781 429.805 171.841C429.5 176.159 429.5 180.492 429.805 184.809C430.006 188.031 430.664 189.99 430.556 190.098Z" fill="#2D214A"/>
<path d="M395.212 190.098C393.353 187.375 391.037 184.995 388.366 183.063C385.572 181.327 382.503 180.079 379.291 179.372C380.276 179.277 381.269 179.373 382.217 179.654C384.551 180.192 386.766 181.152 388.755 182.486C390.748 183.817 392.474 185.511 393.842 187.48C394.458 188.259 394.923 189.147 395.212 190.098Z" fill="#2D214A"/>
<path d="M588.704 171.224C588.704 171.345 586.663 171.398 583.334 171.72C579.093 172.113 574.915 173.015 570.89 174.405C566.896 175.912 563.041 177.767 559.372 179.949C557.869 180.903 556.314 181.772 554.714 182.554C555.063 182.22 555.446 181.923 555.855 181.668C556.607 181.131 557.721 180.406 559.117 179.52C562.748 177.196 566.613 175.262 570.648 173.747C574.725 172.311 578.98 171.443 583.294 171.17C584.945 171.076 586.274 171.036 587.2 171.076C587.705 171.063 588.21 171.113 588.704 171.224Z" fill="#2D214A"/>
<path d="M563.265 170.915C562.41 171.29 561.536 171.621 560.648 171.908C556.49 173.591 553.007 176.602 550.741 180.473C549.868 181.949 549.479 182.956 549.398 182.916C549.531 181.97 549.846 181.058 550.325 180.231C552.431 176.07 556.091 172.906 560.513 171.425C561.388 171.074 562.323 170.901 563.265 170.915Z" fill="#2D214A"/>
<path d="M390.339 185.225C390.339 185.345 388.487 185.815 385.587 186.876C381.776 188.164 378.303 190.293 375.426 193.104C372.634 195.985 371.061 199.832 371.036 203.844C371.133 205.503 371.486 207.138 372.083 208.69C371.799 208.331 371.568 207.933 371.398 207.508C370.901 206.356 370.615 205.124 370.553 203.87C370.481 201.794 370.83 199.724 371.58 197.786C372.33 195.848 373.464 194.082 374.915 192.594C377.864 189.702 381.471 187.569 385.426 186.379C386.916 185.896 388.111 185.587 388.997 185.399C389.435 185.285 389.886 185.226 390.339 185.225Z" fill="#2D214A"/>
<path d="M564.392 208.891C564.926 207.552 565.375 206.18 565.735 204.784C566.438 201.386 566.465 197.883 565.815 194.474C565.496 192.591 564.861 190.776 563.936 189.105C563.146 187.777 562.118 186.608 560.902 185.655C558.795 184.03 557.305 183.265 557.372 183.158C557.757 183.249 558.124 183.403 558.459 183.614C559.397 184.092 560.294 184.644 561.144 185.265C562.464 186.201 563.582 187.393 564.433 188.769C565.424 190.476 566.11 192.343 566.46 194.286C567.122 197.783 567.022 201.383 566.164 204.837C565.9 205.884 565.517 206.897 565.023 207.858C564.688 208.636 564.433 208.972 564.392 208.891Z" fill="#2D214A"/>
<path d="M466.104 163.76V163.384C450.841 161.398 443.806 146.672 442.8 129.059C442.263 119.663 441.847 118.951 442.504 98.6946C442.878 86.7486 444.598 74.883 447.632 63.3227C447.632 63.3227 459.996 47.8047 483.353 49.5632C506.711 51.3218 518.859 82.7068 518.859 82.7068C518.859 82.7068 518.698 130.402 517.316 140.04C516.562 144.358 516.171 148.732 516.148 153.115L515.597 164.901C515.304 171.265 512.569 177.272 507.962 181.672C503.354 186.072 497.228 188.527 490.857 188.527C487.605 188.527 484.385 187.886 481.381 186.642C478.377 185.397 475.648 183.572 473.349 181.272C471.05 178.972 469.227 176.242 467.984 173.237C466.741 170.232 466.102 167.012 466.104 163.76Z" fill="#FFBE9D"/>
<path d="M517.691 112.602C518.094 112.427 534.095 107.621 533.692 123.985C533.289 140.349 516.953 136.563 516.939 136.067C516.926 135.57 517.691 112.602 517.691 112.602Z" fill="#FFBE9D"/>
<path d="M522.081 130.026C522.161 130.026 522.363 130.227 522.846 130.455C523.176 130.61 523.533 130.698 523.897 130.714C524.261 130.73 524.625 130.674 524.967 130.549C526.712 129.959 528.242 127.247 528.39 124.307C528.468 122.903 528.229 121.499 527.692 120.199C527.552 119.685 527.287 119.213 526.922 118.825C526.557 118.436 526.102 118.143 525.598 117.971C525.274 117.873 524.926 117.894 524.616 118.029C524.306 118.164 524.055 118.405 523.906 118.709C523.665 119.152 523.759 119.488 523.678 119.515C523.598 119.542 523.329 119.233 523.477 118.562C523.583 118.157 523.819 117.799 524.148 117.542C524.606 117.213 525.175 117.078 525.732 117.166C526.403 117.316 527.024 117.635 527.536 118.094C528.048 118.552 528.435 119.134 528.658 119.783C529.316 121.216 529.615 122.787 529.531 124.361C529.343 127.663 527.585 130.697 525.195 131.328C524.754 131.445 524.292 131.462 523.843 131.376C523.394 131.29 522.971 131.104 522.604 130.831C522.108 130.415 522.027 130.053 522.081 130.026Z" fill="#EB996E"/>
<path d="M451.78 108.333C452.223 108.803 454.908 106.776 458.747 106.763C462.586 106.749 465.459 108.642 465.808 108.172C466.009 107.958 465.553 107.125 464.331 106.239C462.663 105.103 460.684 104.512 458.666 104.548C456.671 104.552 454.73 105.192 453.122 106.374C451.954 107.286 451.565 108.132 451.78 108.333Z" fill="#2D214A"/>
<path d="M489.354 107.688C489.81 108.145 492.495 106.131 496.321 106.104C500.146 106.077 503.033 107.984 503.395 107.514C503.596 107.299 503.14 106.467 501.905 105.581C500.235 104.449 498.257 103.858 496.24 103.889C494.25 103.897 492.313 104.536 490.709 105.715C489.542 106.628 489.139 107.473 489.354 107.688Z" fill="#2D214A"/>
<path d="M493.327 95.4325C493.528 96.2379 495.851 96.3319 498.388 97.1507C500.925 97.9696 502.912 99.1106 503.543 98.5602C503.825 98.2783 503.663 97.54 502.939 96.654C501.942 95.5571 500.667 94.7498 499.249 94.3174C497.832 93.885 496.324 93.8436 494.884 94.1974C493.797 94.5196 493.247 95.0432 493.327 95.4325Z" fill="#2D214A"/>
<path d="M454.17 93.916C454.841 94.6678 457.311 94.7751 459.687 94.1845C462.063 93.5938 463.459 92.5065 462.801 91.7682C462.143 91.0299 459.66 90.9091 457.284 91.5131C454.908 92.1172 453.512 93.1777 454.17 93.916Z" fill="#2D214A"/>
<path d="M480.212 136.966C480.212 137.194 480.668 137.597 481.689 137.745C483.046 137.887 484.407 137.507 485.494 136.681C486.581 135.856 487.313 134.647 487.541 133.302C487.689 132.281 487.434 131.677 487.192 131.677C486.709 131.677 486.32 133.838 484.414 135.261C482.507 136.684 480.319 136.496 480.212 136.966Z" fill="#2D214A"/>
<path d="M466.09 163.384C466.09 163.384 485.703 163.693 490.334 160.31C490.334 160.31 487.381 169.707 466.614 168.727L466.09 163.384Z" fill="#EB996E"/>
<path d="M432.839 79.5524C432.598 75.7132 431.43 71.9545 431.417 68.1019C431.465 65.2257 432.111 62.3911 433.312 59.7776C434.514 57.164 436.245 54.8287 438.397 52.9195C442.776 49.1228 448.349 46.9848 454.143 46.8787C458.452 46.7713 462.788 47.6842 467.043 47.0532C470.668 46.5297 474.024 44.9054 477.581 44.0194C481.264 43.1276 485.094 43.0253 488.819 43.7194C492.544 44.4135 496.079 45.8882 499.194 48.0466C499.194 48.0466 506.698 52.4094 515.947 63.1619C515.947 63.1619 532.7 63.6586 531.948 87.1503C531.196 110.642 529.545 113.582 529.545 113.582L524.014 111.904C524.484 114.589 524.941 117.394 523.477 119.864C523.106 120.538 522.559 121.1 521.896 121.49C521.232 121.88 520.475 122.083 519.705 122.079C516.47 121.918 515.396 118.186 515.034 115.166C514.049 107.183 513.45 99.1692 513.235 91.1238C513.168 88.8686 512.685 86.0227 510.55 85.4992C509.208 85.2039 508 85.9019 506.724 86.2375C505.442 86.5554 504.096 86.5103 502.837 86.1073C501.578 85.7043 500.456 84.9593 499.596 83.9555C499.328 87.0295 495.166 88.4122 492.374 87.1101C489.582 85.808 487.931 82.9353 486.454 80.2371C486.677 81.9372 486.545 83.665 486.065 85.3113C485.805 86.1304 485.3 86.8501 484.619 87.3734C483.937 87.8966 483.111 88.1983 482.253 88.2377C480.266 88.1437 478.91 86.2375 477.984 84.479C475.753 80.2279 474.186 75.66 473.339 70.9343C471.916 78.2667 467.663 84.7435 461.499 88.9626C460.801 86.9042 460.108 84.8504 459.419 82.801C458.653 84.0556 457.666 85.1608 456.506 86.063C455.924 86.5166 455.231 86.8067 454.5 86.9034C453.768 87.0002 453.024 86.9001 452.344 86.6134C451.897 86.3579 451.532 85.979 451.294 85.522C451.056 85.065 450.955 84.5491 451.002 84.036C450.345 85.0216 449.344 85.7271 448.195 86.015C447.046 86.3029 445.831 86.1525 444.787 85.5932C444.015 85.1131 443.385 84.4368 442.961 83.6333C443.753 95.6074 444.532 108.588 442.317 119.985L436.813 107.568C433.524 100.198 432.139 92.1206 432.786 84.0763C432.911 82.5715 432.929 81.0597 432.839 79.5524Z" fill="#2D214A"/>
<path d="M514.792 66.3432C514.899 66.3432 515.1 65.2693 515.959 63.7524C517.104 61.7871 518.843 60.2359 520.926 59.3225C523.033 58.4694 525.36 58.3234 527.558 58.9064C529.249 59.3493 530.175 59.9668 530.242 59.8729C530.31 59.7789 530.054 59.6581 529.638 59.3896C529.012 59.0294 528.345 58.7455 527.652 58.5439C525.366 57.808 522.894 57.9031 520.671 58.8124C518.466 59.7628 516.662 61.4529 515.57 63.5913C515.242 64.2283 514.999 64.9051 514.845 65.6049C514.765 66.0613 514.751 66.3432 514.792 66.3432Z" fill="#2D214A"/>
<path d="M512.711 65.8599C512.711 65.8599 512.993 65.7123 513.423 65.3498C514.023 64.8349 514.563 64.254 515.034 63.6181C516.639 61.5087 517.575 58.9657 517.718 56.3185C517.862 53.6714 517.207 51.0421 515.839 48.7713C515.43 48.0896 514.954 47.4509 514.416 46.8651C514.04 46.4624 513.799 46.2745 513.772 46.3013C513.745 46.3282 514.55 47.2544 515.477 48.9861C516.694 51.2234 517.266 53.755 517.129 56.2983C516.991 58.8417 516.15 61.2969 514.698 63.3899C513.597 64.9873 512.644 65.7794 512.711 65.8599Z" fill="#2D214A"/>
<path d="M472.802 116.817C472.56 116.75 472.104 117.595 471.567 119.018C471.298 119.716 471.003 120.575 470.708 121.528C470.56 122.012 470.412 122.508 470.251 123.019C470.042 123.613 469.907 124.23 469.849 124.858C469.822 125.256 469.878 125.656 470.012 126.032C470.146 126.408 470.355 126.753 470.627 127.046C471.131 127.543 471.78 127.867 472.48 127.972C473.065 128.061 473.663 128.01 474.225 127.824C474.674 127.659 475.099 127.433 475.487 127.153C476.829 126.093 477.192 125.233 477.057 125.072C476.923 124.911 476.064 125.462 474.829 126.079C474.198 126.408 473.472 126.508 472.775 126.361C472.442 126.285 472.138 126.112 471.903 125.864C471.795 125.738 471.716 125.589 471.669 125.43C471.623 125.27 471.611 125.103 471.634 124.938C471.678 124.45 471.777 123.968 471.929 123.502C472.05 122.978 472.158 122.468 472.278 121.958C472.493 120.978 472.654 120.092 472.775 119.34C473.017 117.837 473.03 116.87 472.802 116.817Z" fill="#2D214A"/>
<path d="M523.625 91.1238C523.74 90.749 523.808 90.3611 523.826 89.9694C523.92 89.231 524.041 88.1437 524.148 86.8013C524.485 83.2892 524.295 79.7464 523.584 76.2904C522.839 72.7907 521.052 69.5988 518.456 67.1353C517.653 66.4026 516.749 65.788 515.772 65.3097C515.427 65.1178 515.056 64.9776 514.671 64.8936C515.908 65.6257 517.068 66.4802 518.134 67.4441C520.56 69.9217 522.235 73.0352 522.967 76.4247C523.635 79.8178 523.856 83.2837 523.625 86.7342C523.537 88.1961 523.537 89.6619 523.625 91.1238Z" fill="#455A64"/>
<path d="M509.382 85.0425C510.148 84.3661 510.796 83.5678 511.302 82.6799C512.642 80.6233 513.622 78.3536 514.201 75.968C514.779 73.5703 514.947 71.0922 514.698 68.6385C514.653 67.6216 514.439 66.6192 514.067 65.6719C513.973 65.6719 514.188 66.8263 514.282 68.6654C514.406 71.0696 514.184 73.4791 513.624 75.8203C513.047 78.1721 512.143 80.4314 510.939 82.5323C510.026 84.0492 509.302 84.9754 509.382 85.0425Z" fill="#455A64"/>
<path d="M474.05 70.6256C474.072 70.4383 474.072 70.2491 474.05 70.0618C474.05 69.6322 474.05 69.0953 474.05 68.4509C474.081 66.4835 474.233 64.5198 474.507 62.5713C474.881 59.697 475.965 56.9612 477.661 54.6109C478.695 53.2705 480.016 52.1788 481.528 51.416C483.169 50.6178 484.944 50.1308 486.763 49.9797C490.307 49.6963 493.865 50.3394 497.086 51.8456C498.501 52.4964 499.85 53.2831 501.113 54.1948C502.197 55.0041 503.212 55.9021 504.147 56.8796C505.501 58.2935 506.653 59.8882 507.57 61.6182C508.241 62.8398 508.51 63.5646 508.563 63.5512C508.617 63.5378 508.563 63.3499 508.402 63.0008C508.225 62.4927 508.019 61.9951 507.785 61.5108C506.914 59.7156 505.789 58.0562 504.442 56.5842C503.513 55.5678 502.498 54.6336 501.408 53.792C500.148 52.8454 498.8 52.0228 497.381 51.3355C494.081 49.7591 490.422 49.083 486.776 49.3756C484.883 49.527 483.037 50.042 481.34 50.8925C479.754 51.694 478.376 52.8519 477.312 54.2753C475.576 56.7028 474.494 59.5369 474.171 62.5042C473.923 64.4715 473.833 66.4557 473.903 68.4375C473.903 69.1355 473.903 69.6859 473.903 70.0484C473.92 70.2475 473.97 70.4425 474.05 70.6256Z" fill="#455A64"/>
<path d="M455.271 74.1694C455.358 73.9917 455.417 73.8015 455.445 73.6056C455.539 73.176 455.66 72.6257 455.808 71.9813C456.13 70.5584 456.573 68.5045 457.298 66.0211C458.089 63.1008 459.253 60.2945 460.761 57.6715C462.603 54.4637 465.361 51.8789 468.681 50.2481C472.048 48.7098 475.72 47.957 479.42 48.0465C482.449 48.1084 485.464 48.4863 488.414 49.1741C490.938 49.7379 492.965 50.3018 494.374 50.6642L495.985 51.0938C496.173 51.1534 496.366 51.1895 496.563 51.2012C496.394 51.1032 496.213 51.0265 496.026 50.9729L494.428 50.4494C493.086 50.0064 491.032 49.3755 488.508 48.7714C485.538 47.9889 482.49 47.5386 479.42 47.4291C475.632 47.3101 471.869 48.0729 468.426 49.6574C465.005 51.3305 462.173 54.0036 460.305 57.3224C458.792 59.9925 457.65 62.8556 456.908 65.8332C456.224 68.3569 455.848 70.4376 455.566 71.8605C455.445 72.5854 455.365 73.1358 455.311 73.5251C455.272 73.7374 455.258 73.9538 455.271 74.1694Z" fill="#455A64"/>
<path d="M446.062 77.2569C446.156 77.2569 445.927 75.4447 445.699 72.5451C445.265 68.791 445.683 64.9874 446.921 61.4168C447.648 59.4928 448.832 57.7743 450.371 56.4097C451.581 55.3323 453.04 54.5712 454.616 54.1941C456.192 53.817 457.838 53.8357 459.405 54.2484C459.405 54.2484 459.311 54.1813 459.11 54.0873C458.819 53.9626 458.518 53.8638 458.21 53.792C457.056 53.5413 455.861 53.5413 454.707 53.792C452.98 54.1284 451.367 54.9 450.022 56.0338C448.386 57.4357 447.131 59.227 446.37 61.2423C445.085 64.8867 444.712 68.7904 445.283 72.6123C445.444 74.0755 445.632 75.2971 445.78 76.0488C445.823 76.4617 445.917 76.8676 446.062 77.2569Z" fill="#455A64"/>
<path d="M498.683 126.187C498.844 126.187 498.898 125.77 498.817 125.328C498.737 124.885 498.522 124.549 498.361 124.589C498.2 124.629 498.146 125.005 498.24 125.448C498.334 125.891 498.522 126.214 498.683 126.187Z" fill="#EB996E"/>
<path d="M491.837 124.75C491.998 124.75 492.199 124.629 492.28 124.361C492.36 124.092 492.28 123.851 492.159 123.797C492.038 123.744 491.81 123.918 491.73 124.173C491.649 124.428 491.689 124.696 491.837 124.75Z" fill="#EB996E"/>
<path d="M495.313 128.885C495.475 128.885 495.636 128.563 495.689 128.12C495.743 127.677 495.689 127.314 495.461 127.288C495.233 127.261 495.139 127.623 495.099 128.066C495.058 128.509 495.152 128.872 495.313 128.885Z" fill="#EB996E"/>
<path d="M503.945 128.093C504.093 128.093 504.12 127.65 503.945 127.207C503.771 126.764 503.583 126.455 503.422 126.495C503.261 126.535 503.247 126.938 503.422 127.381C503.596 127.824 503.784 128.133 503.945 128.093Z" fill="#EB996E"/>
<path d="M458.411 124.589C458.573 124.589 458.734 124.307 458.774 123.905C458.814 123.502 458.774 123.18 458.559 123.153C458.344 123.126 458.237 123.448 458.197 123.838C458.156 124.227 458.237 124.576 458.411 124.589Z" fill="#EB996E"/>
<path d="M452.008 124.428C452.169 124.428 452.304 124.066 452.304 123.636C452.304 123.207 452.169 122.831 452.008 122.831C451.847 122.831 451.713 123.193 451.713 123.636C451.713 124.079 451.847 124.428 452.008 124.428Z" fill="#EB996E"/>
<path d="M446.706 124.106C446.867 124.106 447.069 123.797 447.162 123.368C447.256 122.938 447.162 122.535 447.028 122.508C446.894 122.482 446.666 122.804 446.585 123.247C446.505 123.69 446.545 124.066 446.706 124.106Z" fill="#EB996E"/>
<path d="M455.029 129.838C455.19 129.838 455.217 129.408 455.029 128.965C454.841 128.522 454.653 128.2 454.505 128.254C454.358 128.308 454.331 128.697 454.505 129.126C454.68 129.556 454.881 129.892 455.029 129.838Z" fill="#EB996E"/>
<path d="M449.016 129.046C449.177 129.046 449.338 128.804 449.378 128.455C449.418 128.106 449.378 127.798 449.163 127.784C448.948 127.771 448.841 128.026 448.801 128.375C448.761 128.724 448.855 129.033 449.016 129.046Z" fill="#EB996E"/>
<path d="M491.166 113.287C491.083 114.205 491.362 115.119 491.944 115.834C492.526 116.549 493.364 117.008 494.28 117.112C494.724 117.185 495.178 117.167 495.615 117.061C496.053 116.955 496.464 116.762 496.826 116.495C497.187 116.227 497.492 115.889 497.721 115.502C497.95 115.115 498.099 114.686 498.16 114.24C498.243 113.324 497.965 112.411 497.386 111.697C496.807 110.982 495.972 110.522 495.059 110.414C494.614 110.34 494.158 110.356 493.719 110.461C493.281 110.566 492.867 110.758 492.504 111.026C492.141 111.294 491.836 111.632 491.606 112.021C491.376 112.409 491.226 112.84 491.166 113.287Z" fill="#2D214A"/>
<path d="M455.955 114.024C455.868 114.941 456.144 115.855 456.724 116.571C457.304 117.286 458.141 117.745 459.056 117.85C459.5 117.922 459.954 117.905 460.391 117.799C460.829 117.693 461.24 117.5 461.602 117.232C461.963 116.965 462.268 116.627 462.497 116.24C462.726 115.853 462.875 115.423 462.936 114.978C463.022 114.061 462.746 113.147 462.166 112.431C461.587 111.716 460.749 111.257 459.835 111.152C459.39 111.078 458.936 111.094 458.498 111.199C458.06 111.304 457.647 111.497 457.285 111.765C456.923 112.033 456.619 112.371 456.39 112.759C456.162 113.148 456.014 113.578 455.955 114.024Z" fill="#2D214A"/>
<path d="M425.429 213.764L381.13 257.231H483.581C483.581 257.231 488.951 248.559 498.871 249.284C508.791 250.008 553.372 262.358 566.796 260.157L555.05 211.965C555.05 211.965 519.584 201.683 499.395 205.575C493.82 206.678 488.688 209.384 484.628 213.361L425.429 213.764Z" fill="#FAFAFA"/>
<path d="M483.527 257.217C483.326 257.217 483.527 247.337 483.836 235.175C484.145 223.013 484.655 213.133 484.843 213.146C485.031 213.16 484.843 223.013 484.534 235.188C484.225 247.364 483.715 257.217 483.527 257.217Z" fill="#2D214A"/>
<path d="M469.406 248.921C468.867 247.716 468.02 246.674 466.949 245.901C465.671 244.992 464.193 244.402 462.64 244.183C460.554 243.926 458.441 244.017 456.385 244.451C443.859 247.184 431.005 248.088 418.22 247.136L417.415 247.069L418.033 246.545C423.577 241.805 429.892 238.05 436.705 235.444C441.462 233.62 446.419 232.368 451.471 231.712C452.693 231.564 453.901 231.43 455.109 231.35C456.345 231.14 457.613 231.26 458.787 231.699C459.107 231.841 459.385 232.065 459.592 232.347C459.799 232.63 459.929 232.961 459.969 233.309C459.987 233.646 459.932 233.983 459.807 234.296C459.682 234.609 459.49 234.891 459.244 235.122C458.346 235.896 457.307 236.489 456.183 236.867C452.174 238.479 447.843 239.127 443.538 238.759C441.597 238.603 439.68 238.233 437.819 237.659C436.932 237.399 436.066 237.071 435.228 236.679C434.418 236.288 433.675 235.772 433.027 235.148C432.356 234.565 431.887 233.785 431.685 232.92C431.609 232.503 431.618 232.075 431.713 231.662C431.808 231.249 431.985 230.86 432.235 230.517C433.244 229.428 434.488 228.583 435.873 228.047C437.96 227.047 440.108 226.177 442.303 225.443C444.115 224.839 445.551 224.476 446.518 224.248C447.015 224.127 447.377 224.047 447.632 224.007C447.761 223.986 447.892 223.986 448.021 224.007C447.902 224.064 447.776 224.104 447.646 224.127L446.558 224.436C445.592 224.705 444.182 225.121 442.397 225.779C440.23 226.55 438.11 227.446 436.047 228.463C434.733 228.986 433.554 229.798 432.597 230.839C432.387 231.133 432.238 231.467 432.16 231.82C432.081 232.173 432.075 232.538 432.141 232.893C432.329 233.661 432.751 234.35 433.349 234.867C433.966 235.444 434.668 235.924 435.43 236.289C436.245 236.65 437.084 236.955 437.94 237.202C439.771 237.758 441.657 238.109 443.565 238.249C447.774 238.586 452.003 237.933 455.915 236.343C456.947 235.988 457.904 235.442 458.734 234.732C458.922 234.565 459.069 234.357 459.164 234.125C459.26 233.892 459.301 233.641 459.284 233.39C459.255 233.155 459.163 232.931 459.02 232.742C458.876 232.554 458.684 232.407 458.465 232.316C457.394 231.934 456.242 231.836 455.123 232.034C453.941 232.115 452.733 232.249 451.525 232.41C446.544 233.059 441.659 234.303 436.974 236.115C430.23 238.688 423.974 242.392 418.476 247.069L418.288 246.478C431.015 247.45 443.817 246.632 456.317 244.048C458.421 243.623 460.582 243.56 462.707 243.861C464.299 244.114 465.805 244.75 467.097 245.713C467.9 246.316 468.564 247.085 469.043 247.968C469.211 248.266 469.333 248.587 469.406 248.921Z" fill="#2D214A"/>
<path d="M504.388 234.813C503.745 230.054 503.565 225.243 503.852 220.449C504.495 225.208 504.675 230.019 504.388 234.813Z" fill="#2D214A"/>
<path d="M518.255 243.404C517.215 242.849 516.219 242.216 515.275 241.511C512.915 239.952 510.478 238.514 507.972 237.202C505.032 235.672 502.28 234.517 500.253 233.671C499.135 233.315 498.049 232.866 497.005 232.329C498.177 232.494 499.326 232.796 500.428 233.229C503.134 234.151 505.764 235.282 508.294 236.611C510.834 237.917 513.267 239.421 515.57 241.108C516.557 241.758 517.459 242.53 518.255 243.404Z" fill="#2D214A"/>
<path d="M540.432 233.162C536.845 235.16 533.147 236.952 529.357 238.531C525.663 240.325 521.871 241.911 518 243.283C521.589 241.289 525.287 239.496 529.075 237.914C532.766 236.113 536.558 234.527 540.432 233.162Z" fill="#2D214A"/>
<path d="M531.679 235.927C531.375 232.71 531.303 229.476 531.464 226.248C531.392 223.015 531.549 219.781 531.934 216.57C532.24 219.787 532.316 223.021 532.162 226.248C532.226 229.482 532.065 232.716 531.679 235.927Z" fill="#2D214A"/>
<path d="M526.31 242.558C526.108 242.558 525.893 242.035 525.813 241.35C525.732 240.665 525.813 240.088 526.028 240.008C526.242 239.927 526.43 240.531 526.511 241.216C526.591 241.9 526.524 242.531 526.31 242.558Z" fill="#2D214A"/>
<path d="M528.47 242.276C528.282 242.276 528.068 241.498 528.001 240.505C527.933 239.511 528.001 238.706 528.215 238.679C528.43 238.652 528.631 239.471 528.699 240.464C528.766 241.458 528.672 242.263 528.47 242.276Z" fill="#2D214A"/>
<path d="M527.759 245.874C527.84 245.874 528.001 246.586 528.645 247.633C528.831 247.933 529.08 248.189 529.374 248.383C529.668 248.578 530.001 248.707 530.35 248.76C530.545 248.785 530.744 248.76 530.927 248.687C531.11 248.614 531.272 248.496 531.397 248.344C531.542 248.199 531.637 248.012 531.668 247.809C531.7 247.606 531.666 247.399 531.572 247.216L532.068 246.921C532.438 247.497 532.924 247.988 533.495 248.365C534.066 248.742 534.709 248.995 535.384 249.109C536.145 249.256 536.93 249.2 537.663 248.948C538.396 248.696 539.049 248.256 539.559 247.673C540.255 246.941 540.692 246.001 540.801 244.996C540.91 243.992 540.686 242.98 540.163 242.115C539.69 241.381 538.956 240.853 538.109 240.639C537.349 240.464 536.56 240.464 535.8 240.639C534.679 240.943 533.62 241.443 532.672 242.115C532.326 242.383 531.953 242.612 531.558 242.8C531.558 242.8 531.853 242.424 532.511 241.901C533.436 241.108 534.515 240.514 535.679 240.156C536.516 239.932 537.394 239.904 538.243 240.075C539.248 240.304 540.128 240.909 540.7 241.766C541.328 242.697 541.613 243.817 541.505 244.934C541.389 246.132 540.885 247.258 540.069 248.143C539.481 248.811 538.727 249.313 537.884 249.599C537.04 249.884 536.136 249.942 535.263 249.767C534.502 249.628 533.779 249.329 533.143 248.889C532.506 248.45 531.971 247.879 531.572 247.216L532.068 246.908C532.217 247.196 532.27 247.523 532.222 247.844C532.174 248.164 532.026 248.461 531.8 248.693C531.612 248.883 531.38 249.025 531.126 249.107C530.871 249.189 530.6 249.208 530.337 249.163C529.927 249.093 529.54 248.93 529.204 248.685C528.869 248.441 528.595 248.122 528.404 247.753C528.166 247.308 527.986 246.834 527.867 246.344C527.746 246.062 527.732 245.888 527.759 245.874Z" fill="#2D214A"/>
<path d="M551.158 237.86C550.97 237.86 550.755 236.947 550.674 235.806C550.594 234.665 550.674 233.725 550.876 233.712C551.077 233.699 551.292 234.611 551.372 235.766C551.453 236.92 551.359 237.847 551.158 237.86Z" fill="#2D214A"/>
<path d="M547.613 245.041C547.748 245.176 547.13 246.075 546.204 247.068C545.278 248.062 544.432 248.76 544.298 248.626C544.163 248.491 544.781 247.592 545.64 246.599C546.499 245.605 547.466 244.907 547.613 245.041Z" fill="#2D214A"/>
<path d="M547.64 238.92C547.533 239.081 546.835 238.84 546.083 238.383C545.331 237.927 544.74 237.417 544.875 237.242C545.009 237.068 545.68 237.323 546.445 237.779C547.21 238.236 547.788 238.746 547.64 238.92Z" fill="#2D214A"/>
<path d="M545.103 241.176C545.103 241.364 544.472 241.525 543.76 241.525C543.049 241.525 542.418 241.364 542.418 241.176C542.418 240.988 543.035 240.827 543.76 240.827C544.485 240.827 545.103 240.974 545.103 241.176Z" fill="#2D214A"/>
<path d="M520.537 217.684C520.64 218.661 520.64 219.646 520.537 220.623C520.457 222.449 520.309 224.986 520.094 227.859V228.195H519.759L518.108 228.127L513.678 227.899H513.355V227.59C513.355 225.416 513.355 223.563 513.449 222.221C513.42 221.527 513.479 220.833 513.624 220.154C513.789 220.83 513.861 221.525 513.839 222.221C513.906 223.563 513.96 225.375 514 227.59L513.691 227.268L518.134 227.443L519.785 227.523L519.423 227.832C519.651 224.959 519.893 222.463 520.094 220.61C520.127 219.621 520.276 218.638 520.537 217.684Z" fill="#2D214A"/>
<path d="M548.727 221.174C544.168 221.082 539.63 220.529 535.183 219.523C537.466 219.439 539.753 219.601 542.002 220.006C544.277 220.17 546.53 220.561 548.727 221.174Z" fill="#2D214A"/>
<path d="M502.013 222.02C498.152 222.445 494.254 222.414 490.401 221.926C492.319 221.593 494.27 221.489 496.213 221.617C498.156 221.514 500.103 221.649 502.013 222.02Z" fill="#2D214A"/>
<path d="M554.782 182.607L531.679 187.681C531.679 187.681 524.846 182.392 521.907 182.231C518.967 182.07 508.241 182.231 508.241 182.231C508.241 182.231 497.502 190.46 497.502 192.487C497.642 194.112 498.098 195.694 498.844 197.145C498.844 197.145 497.247 198.272 498.2 202.447C499.153 206.622 499.932 206.917 499.932 206.917C499.932 206.917 497.905 210.81 500.388 212.354C502.797 213.577 505.356 214.479 507.999 215.039L515.812 213.696C512.966 214.26 535.934 212.918 537.049 208.891H564.393C566.877 197.024 566.93 185.909 554.782 182.607Z" fill="#FFBE9D"/>
<path d="M513.772 190.796C511.114 191.337 508.509 192.11 505.986 193.105C503.56 194.317 501.203 195.661 498.925 197.132C499.405 196.471 500.001 195.903 500.683 195.454C502.23 194.254 503.916 193.244 505.704 192.447C508.206 191.21 510.985 190.641 513.772 190.796Z" fill="#EB996E"/>
<path d="M515.906 197.91C515.906 198.112 511.879 198.904 507.06 200.139C504.616 200.743 502.442 201.374 500.885 201.91C500.068 202.266 499.224 202.553 498.361 202.77C499.057 202.185 499.853 201.731 500.71 201.427C505.579 199.523 510.697 198.329 515.906 197.883V197.91Z" fill="#EB996E"/>
<path d="M513.973 206.958C511.641 207.056 509.306 207.015 506.979 206.837C503.14 206.703 500.052 207.106 500.012 206.918C502.266 206.205 504.637 205.941 506.993 206.139C509.346 206.08 511.697 206.356 513.973 206.958Z" fill="#EB996E"/>
<path d="M539.317 199.065C539.6 199.741 539.742 200.467 539.733 201.199C539.884 202.98 539.66 204.773 539.076 206.461C538.738 207.398 538.244 208.269 537.612 209.039C537.09 209.664 536.469 210.199 535.773 210.623C535.163 211.052 534.45 211.311 533.706 211.375C533.706 211.254 534.458 210.972 535.505 210.207C536.113 209.761 536.655 209.232 537.116 208.636C537.683 207.903 538.135 207.088 538.458 206.22C539.006 204.607 539.287 202.916 539.29 201.213C539.215 200.498 539.224 199.777 539.317 199.065Z" fill="#EB996E"/>
<path d="M438.826 209.307C438.826 209.307 437.323 215.308 445.753 214.932L446.679 198.635C446.679 198.635 446.317 192.648 437.699 193.588L436.007 200.515C437.067 201.533 437.845 202.81 438.263 204.22C438.539 205.904 438.727 207.603 438.826 209.307Z" fill="#FFBE9D"/>
<path d="M408.851 175.573C408.77 175.573 408.931 174.888 409.455 173.949C410.173 172.741 411.133 171.694 412.274 170.875C413.415 170.055 414.712 169.479 416.086 169.183C416.641 169.001 417.237 168.977 417.804 169.116C415.998 169.654 414.272 170.435 412.676 171.438C411.211 172.628 409.923 174.02 408.851 175.573Z" fill="#2D214A"/>
<path d="M442.182 216.463C442.182 216.463 441.511 216.02 441.403 214.744C441.404 214.566 441.436 214.389 441.497 214.221L441.672 213.778C442.039 212.606 442.81 211.603 443.846 210.945C444.498 210.449 445.184 210 445.9 209.603C446.506 209.264 447.171 209.045 447.86 208.959C449.055 208.824 449.74 209.214 449.699 209.281C449.659 209.348 448.988 209.2 447.941 209.455C447.331 209.591 446.749 209.832 446.222 210.167C445.618 210.556 444.88 210.999 444.276 211.509C443.651 211.95 443.106 212.495 442.665 213.12C442.491 213.415 442.343 213.724 442.195 214.019L441.994 214.449C441.943 214.554 441.911 214.668 441.9 214.785C441.86 215.778 442.303 216.422 442.182 216.463Z" fill="#2D214A"/>
<path d="M443.565 211.978C443.417 212.099 436.142 203.266 427.309 192.245C418.476 181.224 411.455 172.204 411.603 172.11C411.751 172.016 419.026 180.822 427.859 191.829C436.692 202.837 443.713 211.858 443.565 211.978Z" fill="#2D214A"/>
<path d="M447.109 208.582C446.961 208.703 439.793 200.112 431.107 189.386C422.422 178.661 415.509 169.854 415.657 169.734C415.804 169.613 422.973 178.204 431.658 188.943C440.343 199.682 447.203 208.462 447.109 208.582Z" fill="#2D214A"/>
<path d="M450.828 215.039C450.36 214.923 449.872 214.922 449.404 215.036C448.936 215.151 448.503 215.378 448.143 215.697C447.808 216.02 447.556 216.42 447.408 216.862C447.261 217.304 447.223 217.774 447.297 218.234L451.754 219.711L450.828 215.039Z" fill="#2D214A"/>
<path d="M392.071 185.628L409.334 191.199C409.334 191.199 416.919 184.822 419.872 184.661L429.859 184.165C429.859 184.165 442.209 192.393 442.209 194.407C442.069 196.032 441.613 197.614 440.867 199.065C440.867 199.065 444.263 200.407 443.552 203.267C443.336 204.204 442.862 205.061 442.183 205.742C441.505 206.423 440.649 206.9 439.713 207.119C439.713 207.119 441.793 212.731 439.31 214.274C436.901 215.498 434.342 216.401 431.698 216.959C431.698 216.959 427.201 220.53 424.248 220.221C421.295 219.912 406.542 218.973 404.837 216.194L386.903 211.845L373.278 208.435C373.278 208.435 368.056 201.642 376.097 193.427C380.323 189.008 385.988 186.243 392.071 185.628Z" fill="#FFBE9D"/>
<path d="M441.591 193.427C439.089 192.687 436.543 192.109 433.966 191.695C431.365 191.522 428.755 191.522 426.154 191.695C428.712 190.939 431.395 190.702 434.046 190.997C436.697 191.292 439.262 192.114 441.591 193.414V193.427Z" fill="#EB996E"/>
<path d="M440.759 199.065C440.759 199.226 437.967 198.662 434.543 198.179C433.085 197.965 431.614 197.848 430.14 197.83C429.013 197.83 428.382 198.072 428.328 197.991C428.275 197.91 428.932 197.454 430.114 197.333C431.622 197.201 433.142 197.255 434.637 197.494C438.114 197.978 440.906 198.85 440.759 199.065Z" fill="#EB996E"/>
<path d="M439.604 207.12C439.537 207.254 437.295 206.757 434.409 206.515C431.523 206.274 429.241 206.287 429.201 206.14C429.16 205.992 431.563 205.509 434.476 205.817C437.389 206.126 439.698 206.891 439.604 207.12Z" fill="#EB996E"/>
<path d="M373.278 208.435C373.477 208.452 373.674 208.484 373.868 208.529L375.56 208.905L381.977 210.382L404.797 215.845H404.904L404.985 215.966C405.687 216.667 406.57 217.159 407.536 217.389C408.574 217.719 409.632 217.983 410.704 218.181C412.878 218.624 415.174 218.919 417.536 219.188C419.899 219.456 422.382 219.684 424.772 219.819C425.976 219.663 427.138 219.275 428.195 218.678C429.307 218.077 430.371 217.39 431.376 216.624H431.443H431.524C433.093 216.267 434.639 215.819 436.155 215.281C437.012 215 437.843 214.645 438.639 214.221C439.009 214.051 439.328 213.786 439.563 213.454C439.799 213.122 439.943 212.734 439.981 212.328C440.146 210.605 439.907 208.868 439.283 207.254L439.149 206.878L439.538 206.784C440.403 206.58 441.194 206.14 441.823 205.511C442.451 204.883 442.892 204.092 443.095 203.227C443.206 202.826 443.223 202.406 443.143 201.998C443.064 201.591 442.892 201.207 442.639 200.877C442.109 200.22 441.421 199.707 440.639 199.387L440.303 199.24L440.464 198.918C440.898 198.056 441.253 197.158 441.525 196.233C441.659 195.796 441.749 195.346 441.793 194.89C441.818 194.69 441.818 194.487 441.793 194.286C441.731 194.101 441.635 193.928 441.511 193.776C440.338 192.427 439.024 191.208 437.592 190.138C434.826 187.964 432.128 186.111 429.631 184.353H429.779L420.382 184.769C419.122 184.825 417.899 185.214 416.838 185.896C415.916 186.415 415.02 186.98 414.154 187.588C412.543 188.675 411.334 189.588 410.516 190.205L409.589 190.904C409.375 191.065 409.267 191.145 409.254 191.132C409.24 191.118 409.334 191.024 409.536 190.85L410.422 190.085C411.214 189.427 412.395 188.474 413.979 187.4C414.784 186.836 415.684 186.219 416.664 185.628C417.765 184.903 419.039 184.481 420.355 184.406L429.752 183.883H429.833C432.37 185.574 435.081 187.454 437.887 189.642C439.362 190.739 440.713 191.995 441.914 193.387C442.079 193.606 442.206 193.851 442.29 194.112C442.314 194.258 442.314 194.408 442.29 194.555C442.297 194.68 442.297 194.805 442.29 194.931C442.232 195.426 442.133 195.915 441.995 196.394C441.719 197.349 441.35 198.276 440.894 199.159L440.719 198.703C441.626 199.065 442.421 199.657 443.028 200.421C443.338 200.829 443.55 201.302 443.65 201.804C443.75 202.307 443.735 202.825 443.605 203.321C443.361 204.304 442.849 205.201 442.127 205.912C441.404 206.623 440.499 207.12 439.511 207.348L439.78 206.891C440.451 208.625 440.708 210.491 440.531 212.341C440.443 212.822 440.255 213.279 439.981 213.684C439.684 214.098 439.286 214.43 438.827 214.65C437.996 215.097 437.129 215.475 436.236 215.778C434.69 216.31 433.118 216.758 431.524 217.12L431.658 217.04C430.629 217.845 429.528 218.555 428.369 219.161C427.228 219.81 425.968 220.225 424.664 220.382C422.074 220.248 419.711 219.98 417.308 219.725C414.905 219.47 412.637 219.134 410.422 218.691C409.332 218.478 408.256 218.201 407.2 217.859C406.093 217.59 405.093 216.997 404.327 216.154L404.515 216.288L381.695 210.583L375.332 208.932L373.667 208.475C373.537 208.469 373.407 208.456 373.278 208.435Z" fill="#EB996E"/>
<path d="M270.558 156.243C265.578 152.041 261.725 148.645 257.349 144.524C250.799 138.357 242.266 134.726 233.28 134.281L157.475 130.482H143.917C136.225 130.482 94.7591 160.149 89.0942 166.324L126.936 200.662L131.648 198.152L131.098 209.804L241.482 209.549L242.475 193.306L262.974 206.488L289.821 174.634C289.821 174.634 278.935 163.25 270.558 156.243Z" fill="url(#paint0_linear)"/>
<path d="M243.268 140.523C241.965 141.608 240.724 142.764 239.549 143.987C236.85 147.057 234.95 150.746 234.018 154.726C233.13 158.715 232.998 162.836 233.629 166.875C234.086 169.989 234.663 171.855 234.555 171.895C234.319 171.476 234.147 171.023 234.045 170.553C233.667 169.355 233.362 168.136 233.133 166.901C232.345 162.802 232.413 158.583 233.334 154.511C234.287 150.428 236.307 146.672 239.187 143.624C240.057 142.709 241.02 141.885 242.059 141.168C242.428 140.895 242.835 140.678 243.268 140.523Z" fill="#2D214A"/>
<path d="M191.626 197.038C191.13 196.915 190.648 196.739 190.19 196.514C189.277 196.152 187.975 195.534 186.417 194.716C178.25 190.393 171.168 184.275 165.704 176.822C164.671 175.399 163.879 174.204 163.382 173.345C163.087 172.928 162.843 172.478 162.657 172.002C162.765 172.002 164 173.761 166.094 176.526C168.911 180.105 172.057 183.413 175.49 186.406C178.951 189.38 182.686 192.018 186.646 194.286C189.693 196.018 191.68 196.931 191.626 197.038Z" fill="#2D214A"/>
<path d="M139.554 162.163C139.29 162.345 138.986 162.461 138.668 162.498C137.81 162.693 136.921 162.693 136.063 162.498C134.779 162.184 133.616 161.498 132.721 160.525C131.632 159.306 131.009 157.742 130.962 156.109C130.908 154.482 131.378 152.882 132.305 151.544C133.058 150.474 134.057 149.599 135.218 148.994C135.992 148.597 136.827 148.329 137.688 148.202C138.292 148.108 138.627 148.202 138.627 148.202C137.531 148.507 136.469 148.926 135.459 149.45C134.414 150.069 133.52 150.913 132.842 151.92C132.031 153.157 131.627 154.617 131.687 156.095C131.713 157.438 132.167 158.738 132.983 159.805C133.8 160.873 134.935 161.651 136.224 162.029C137.317 162.276 138.445 162.322 139.554 162.163Z" fill="#FAFAFA"/>
<path d="M161.422 138.591C161.422 138.591 161.301 138.953 160.912 139.477C160.335 140.21 159.63 140.833 158.831 141.316C157.65 142.05 156.32 142.508 154.938 142.658C153.222 142.891 151.475 142.596 149.931 141.812C148.386 141.028 147.117 139.792 146.293 138.268C145.596 137.033 145.188 135.657 145.098 134.241C145.018 133.311 145.109 132.373 145.367 131.476C145.555 130.845 145.729 130.536 145.769 130.55C145.551 131.749 145.488 132.972 145.582 134.188C145.77 135.497 146.227 136.754 146.924 137.879C147.713 139.276 148.901 140.406 150.336 141.123C151.771 141.841 153.387 142.114 154.978 141.906C156.284 141.789 157.55 141.401 158.697 140.765C159.688 140.151 160.603 139.421 161.422 138.591Z" fill="#FAFAFA"/>
<path d="M157.986 158.27C158.128 158.249 158.273 158.249 158.415 158.27C158.815 158.364 159.202 158.503 159.57 158.686C160.936 159.379 162.043 160.495 162.724 161.867C163.202 162.821 163.446 163.875 163.436 164.941C163.412 166.169 163.075 167.371 162.456 168.432C161.773 169.611 160.786 170.585 159.597 171.251C158.307 171.959 156.83 172.25 155.368 172.083C153.908 171.936 152.515 171.393 151.341 170.512C150.263 169.679 149.436 168.564 148.951 167.291C148.541 166.224 148.362 165.082 148.427 163.941C148.492 162.8 148.799 161.686 149.327 160.673C149.676 159.986 150.168 159.383 150.77 158.904C151.372 158.424 152.071 158.08 152.818 157.894C153.225 157.811 153.645 157.811 154.053 157.894C154.321 157.961 154.455 158.015 154.455 158.042C153.924 158.001 153.39 158.042 152.871 158.162C152.201 158.383 151.581 158.734 151.047 159.195C150.513 159.655 150.074 160.217 149.757 160.847C149.305 161.803 149.052 162.842 149.015 163.899C148.978 164.956 149.158 166.01 149.542 166.995C149.995 168.176 150.772 169.204 151.784 169.962C152.855 170.758 154.121 171.25 155.449 171.385C156.768 171.532 158.101 171.28 159.274 170.66C160.354 170.052 161.256 169.173 161.892 168.109C162.449 167.214 162.775 166.195 162.841 165.143C162.906 164.091 162.709 163.039 162.268 162.082C161.664 160.765 160.677 159.661 159.435 158.914C158.496 158.471 157.972 158.337 157.986 158.27Z" fill="#FAFAFA"/>
<path d="M157.824 203.737C157.824 203.669 158.334 203.884 159.247 203.965C160.534 204.065 161.823 203.785 162.952 203.159C163.784 202.719 164.507 202.099 165.068 201.344C165.63 200.59 166.017 199.719 166.201 198.797C166.399 197.658 166.343 196.49 166.037 195.376C165.731 194.262 165.181 193.23 164.429 192.353C163.652 191.495 162.714 190.799 161.669 190.304C160.623 189.808 159.49 189.524 158.334 189.467C156.421 189.318 154.506 189.738 152.831 190.675C151.693 191.317 150.741 192.242 150.065 193.36C149.595 194.152 149.475 194.702 149.421 194.702C149.435 194.202 149.573 193.713 149.824 193.279C150.431 192.075 151.36 191.062 152.508 190.353C154.252 189.302 156.275 188.805 158.308 188.93C159.556 188.98 160.782 189.28 161.914 189.81C163.046 190.34 164.061 191.09 164.899 192.017C165.718 192.969 166.312 194.094 166.635 195.307C166.958 196.521 167.002 197.792 166.765 199.025C166.556 200.033 166.118 200.981 165.485 201.793C164.852 202.605 164.041 203.261 163.113 203.71C161.875 204.353 160.461 204.575 159.086 204.341C158.719 204.292 158.361 204.188 158.026 204.032C157.932 203.83 157.824 203.763 157.824 203.737Z" fill="#FAFAFA"/>
<path d="M185.343 189.628C185.343 189.628 185.679 189.373 186.202 188.876C186.936 188.17 187.477 187.287 187.773 186.312C188.221 184.879 188.126 183.33 187.504 181.963C186.696 180.311 185.311 179.013 183.612 178.312C181.912 177.6 180.025 177.468 178.242 177.936C176.777 178.323 175.422 179.045 174.282 180.043C173.259 181.019 172.398 182.152 171.731 183.399C171.773 183.008 171.892 182.63 172.08 182.285C172.519 181.299 173.154 180.413 173.946 179.681C175.103 178.564 176.519 177.752 178.068 177.318C179.993 176.768 182.048 176.891 183.893 177.667C185.747 178.439 187.245 179.875 188.095 181.694C188.757 183.2 188.809 184.903 188.243 186.446C187.887 187.481 187.239 188.39 186.377 189.064C186.083 189.332 185.728 189.526 185.343 189.628Z" fill="#FAFAFA"/>
<path d="M215.037 183.52C215.254 183.556 215.466 183.619 215.668 183.708C216.261 183.92 216.829 184.2 217.359 184.541C219.329 185.812 220.854 187.665 221.722 189.843C222.33 191.349 222.578 192.976 222.447 194.595C222.271 196.462 221.625 198.255 220.567 199.804C219.403 201.522 217.792 202.891 215.909 203.764C213.865 204.671 211.587 204.91 209.399 204.448C204.928 203.562 201.344 199.938 200.834 195.911C200.712 194.015 201.263 192.137 202.391 190.608C203.279 189.287 204.243 188.019 205.277 186.809C206.717 184.958 208.704 183.61 210.956 182.957C211.569 182.8 212.203 182.741 212.835 182.782C213.055 182.764 213.277 182.801 213.479 182.89C212.65 182.896 211.824 183.009 211.023 183.225C208.877 183.95 207.003 185.313 205.653 187.131C204.754 188.232 203.801 189.521 202.875 190.917C201.863 192.351 201.388 194.095 201.532 195.844C201.962 199.522 205.385 202.931 209.587 203.764C211.634 204.197 213.766 203.976 215.681 203.133C217.461 202.325 218.984 201.043 220.084 199.428C221.101 197.981 221.734 196.3 221.923 194.541C222.068 193.007 221.862 191.46 221.319 190.018C220.519 187.911 219.119 186.086 217.292 184.769C215.882 183.856 215.01 183.588 215.037 183.52Z" fill="#FAFAFA"/>
<path d="M221.44 158.27C221.44 158.27 221.614 158.27 221.937 158.27C222.396 158.305 222.848 158.404 223.279 158.566C224.931 159.164 226.296 160.362 227.105 161.921C227.673 163.098 227.931 164.4 227.853 165.704C227.776 167.008 227.366 168.271 226.662 169.372C225.788 170.71 224.571 171.79 223.138 172.498C221.705 173.206 220.108 173.517 218.514 173.399C216.848 173.346 215.238 172.789 213.896 171.801C213.27 171.317 212.75 170.71 212.367 170.017C211.984 169.325 211.746 168.562 211.667 167.774C211.523 166.403 211.623 165.017 211.963 163.68C212.226 162.51 212.714 161.402 213.399 160.418C213.88 159.688 214.518 159.075 215.266 158.622C216.013 158.17 216.852 157.889 217.722 157.8C218.194 157.756 218.671 157.792 219.131 157.908C219.44 158.002 219.587 158.069 219.574 158.096C218.973 158.016 218.363 158.016 217.762 158.096C216.955 158.229 216.185 158.531 215.502 158.982C214.82 159.433 214.241 160.023 213.802 160.713C212.534 162.816 212.009 165.284 212.312 167.721C212.385 168.413 212.601 169.083 212.945 169.688C213.289 170.293 213.755 170.821 214.312 171.238C215.55 172.133 217.027 172.638 218.554 172.687C220.028 172.796 221.504 172.511 222.831 171.863C224.159 171.214 225.291 170.225 226.111 168.996C226.776 167.987 227.175 166.827 227.271 165.623C227.367 164.419 227.158 163.211 226.662 162.109C225.938 160.62 224.705 159.439 223.185 158.78C222.616 158.57 222.033 158.399 221.44 158.27Z" fill="#FAFAFA"/>
<path d="M236.797 147.772C235.742 148.106 234.641 148.264 233.535 148.242C230.817 148.382 228.122 147.669 225.83 146.202C224.568 145.363 223.546 144.211 222.863 142.859C222.318 141.75 222.055 140.524 222.098 139.288C222.13 138.462 222.326 137.649 222.675 136.899C222.943 136.375 223.158 136.147 223.199 136.161C222.832 137.164 222.628 138.22 222.594 139.288C222.625 140.43 222.914 141.55 223.44 142.564C224.107 143.797 225.066 144.847 226.232 145.625C228.416 147.01 230.949 147.746 233.535 147.746C235.535 147.799 236.784 147.652 236.797 147.772Z" fill="#FAFAFA"/>
<path d="M248.878 152.967C249.429 152.877 249.992 152.877 250.543 152.967C252.089 153.03 253.592 153.492 254.906 154.31C255.819 154.924 256.533 155.792 256.959 156.807C257.432 157.977 257.549 159.261 257.295 160.498C256.954 161.896 256.237 163.174 255.222 164.193C254.207 165.213 252.932 165.936 251.536 166.284C250.105 166.688 248.591 166.688 247.16 166.284C245.837 165.862 244.66 165.076 243.764 164.015C242.987 163.136 242.454 162.068 242.219 160.919C241.983 159.769 242.053 158.578 242.421 157.464C242.927 155.982 243.952 154.733 245.307 153.947C245.67 153.741 246.058 153.583 246.462 153.477C246.744 153.41 246.892 153.397 246.905 153.477C246.918 153.558 246.328 153.665 245.455 154.243C244.23 155.061 243.32 156.274 242.878 157.679C242.572 158.704 242.535 159.791 242.77 160.835C243.005 161.878 243.504 162.844 244.22 163.639C245.045 164.6 246.125 165.307 247.334 165.68C248.651 166.054 250.045 166.054 251.362 165.68C252.636 165.368 253.802 164.716 254.735 163.794C255.669 162.872 256.336 161.715 256.664 160.444C256.906 159.33 256.822 158.17 256.422 157.102C256.055 156.177 255.431 155.376 254.624 154.793C253.392 153.976 251.984 153.461 250.516 153.29C249.963 153.221 249.416 153.113 248.878 152.967Z" fill="#FAFAFA"/>
<path d="M250.167 195.722C250.602 195.576 251.052 195.481 251.509 195.441C252.737 195.28 253.946 195.001 255.121 194.608C256.83 194.059 258.268 192.885 259.148 191.319C259.56 190.321 259.716 189.236 259.601 188.162C259.486 187.088 259.104 186.06 258.49 185.171C257.905 184.251 257.131 183.466 256.219 182.869C255.307 182.272 254.278 181.876 253.201 181.708C252.317 181.605 251.422 181.679 250.567 181.926C249.712 182.173 248.914 182.587 248.221 183.144C247.26 183.899 246.511 184.888 246.046 186.017C245.737 186.822 245.684 187.359 245.616 187.359C245.57 186.904 245.63 186.445 245.791 186.017C246.167 184.777 246.9 183.675 247.898 182.849C248.629 182.212 249.483 181.734 250.407 181.443C251.331 181.152 252.305 181.055 253.268 181.158C254.445 181.315 255.572 181.728 256.572 182.368C257.572 183.008 258.419 183.86 259.054 184.863C259.735 185.849 260.154 186.993 260.269 188.187C260.384 189.38 260.192 190.583 259.711 191.682C258.745 193.385 257.142 194.635 255.255 195.159C254.041 195.523 252.788 195.739 251.523 195.803C251.069 195.835 250.614 195.807 250.167 195.722Z" fill="#FAFAFA"/>
<path d="M280.317 181.762C279.902 181.879 279.47 181.92 279.041 181.883C277.871 181.866 276.709 181.681 275.591 181.332C273.915 180.808 272.363 179.949 271.027 178.809C269.395 177.395 268.137 175.602 267.363 173.587C266.555 171.574 266.309 169.379 266.651 167.237C266.922 165.471 267.761 163.84 269.041 162.593C269.893 161.761 270.956 161.176 272.115 160.901C272.55 160.769 273.009 160.741 273.457 160.821C273.062 160.957 272.658 161.069 272.249 161.156C271.184 161.518 270.222 162.13 269.443 162.942C268.3 164.153 267.568 165.693 267.349 167.345C267.061 169.369 267.311 171.434 268.074 173.332C268.81 175.244 269.988 176.955 271.511 178.325C272.765 179.433 274.218 180.294 275.793 180.862C277.263 181.328 278.78 181.63 280.317 181.762Z" fill="#FAFAFA"/>
<path d="M114.761 152.202C115.032 152.572 115.249 152.979 115.405 153.41C115.906 154.554 116.289 155.746 116.546 156.968C116.945 158.792 117.071 160.664 116.922 162.525C116.749 164.821 116.09 167.054 114.989 169.076C113.846 171.09 112.228 172.795 110.277 174.043C108.704 175.074 106.928 175.756 105.069 176.043C103.826 176.267 102.553 176.267 101.31 176.043C100.843 175.979 100.389 175.838 99.9678 175.627C101.618 175.885 103.298 175.885 104.948 175.627C106.909 175.224 108.762 174.408 110.383 173.232C112.003 172.056 113.354 170.547 114.345 168.808C116.211 165.217 116.807 161.101 116.036 157.129C115.539 154.014 114.627 152.256 114.761 152.202Z" fill="#FAFAFA"/>
<path d="M127.862 181.479C127.862 181.479 128.211 181.318 128.869 181.13C129.782 180.898 130.658 180.541 131.473 180.07C132.053 179.751 132.532 179.277 132.857 178.7C133.182 178.124 133.34 177.469 133.313 176.808C133.164 176.011 132.793 175.273 132.241 174.679C131.69 174.085 130.982 173.659 130.198 173.452C128.549 173.129 126.839 173.365 125.339 174.123C124.056 174.655 122.906 175.461 121.969 176.486C121.386 177.199 121.085 178.102 121.124 179.023C121.124 179.681 121.379 180.003 121.325 180.03C121.271 180.056 121.003 179.761 120.855 179.063C120.777 178.56 120.801 178.047 120.926 177.553C121.051 177.06 121.273 176.596 121.58 176.19C122.508 175.025 123.706 174.103 125.07 173.506C126.713 172.622 128.616 172.351 130.44 172.74C131.359 172.976 132.188 173.477 132.823 174.182C133.458 174.886 133.871 175.762 134.011 176.7C134.083 177.541 133.849 178.38 133.353 179.063C132.94 179.621 132.408 180.079 131.796 180.405C130.92 180.868 129.971 181.177 128.99 181.318C128.625 181.433 128.245 181.487 127.862 181.479Z" fill="#FAFAFA"/>
<g opacity="0.3">
<path opacity="0.3" d="M238.394 205.455C237.117 204.592 235.599 204.155 234.058 204.207C221.816 203.482 209.546 205.16 197.277 205.428C185.007 205.697 172.282 204.448 161.61 198.367C158.254 196.461 155.019 194.34 151.569 192.649C145.541 189.628 137.017 190.944 132.01 194.783L131.151 209.804C165.341 210.073 202.15 209.657 236.34 209.912C237.15 209.99 237.964 209.822 238.676 209.429C239.911 208.529 239.562 206.435 238.394 205.455Z" fill="black"/>
</g>
<path d="M140.48 171.519C140.359 171.519 140.749 169.774 141.111 166.969C142.082 159.648 141.626 152.208 139.769 145.061C139.071 142.376 138.426 140.658 138.587 140.618C138.83 140.957 139.016 141.333 139.138 141.732C139.447 142.47 139.836 143.557 140.252 144.927C141.317 148.501 141.97 152.185 142.198 155.907C142.432 159.632 142.229 163.372 141.594 167.049C141.353 168.392 141.098 169.573 140.883 170.352C140.804 170.758 140.668 171.151 140.48 171.519Z" fill="#2D214A"/>
<path d="M136.118 222.785L91.8193 266.252H194.203C194.203 266.252 199.573 257.58 209.506 258.305C219.44 259.03 263.994 271.379 277.418 269.178L265.672 220.973C265.672 220.973 230.206 210.69 210.017 214.597C204.442 215.692 199.309 218.394 195.25 222.369L136.118 222.785Z" fill="#FAFAFA"/>
<path d="M136.119 222.785H136.736H138.589L145.797 222.691L173.048 222.409L192.365 222.234H195.049H195.345C195.023 222.369 195.345 222.234 195.211 222.234L195.466 222.006L195.949 221.536L196.982 220.637C198.419 219.442 199.965 218.386 201.6 217.482C205.044 215.563 208.846 214.375 212.769 213.992C216.898 213.499 221.062 213.378 225.213 213.63C229.586 213.859 233.946 214.307 238.274 214.972C247.564 216.333 256.759 218.275 265.807 220.785H265.981V220.973C269.646 235.94 273.619 252.21 277.754 269.151L277.848 269.54H277.472C276.06 269.715 274.639 269.795 273.217 269.782H271.082L268.948 269.621C267.525 269.527 266.089 269.366 264.666 269.178C263.243 268.99 261.793 268.829 260.357 268.601C254.611 267.728 248.812 266.641 242.986 265.432C234.14 263.634 225.455 261.62 216.904 259.915C212.648 259.164 208.326 258.023 204.258 259.244C200.268 260.466 196.821 263.026 194.499 266.493L194.378 266.654H194.204L91.7662 266.56H91.1621L91.5917 266.144L124.185 234.37L133.018 225.792L135.327 223.59C135.837 223.094 136.119 222.852 136.119 222.852L135.354 223.657L133.071 225.926L124.306 234.611L91.9273 266.426L91.7662 266.01L194.204 265.916L193.922 266.077C196.353 262.463 199.964 259.806 204.137 258.559C206.257 257.978 208.472 257.837 210.648 258.143C212.823 258.385 214.957 258.815 217.105 259.217C225.683 260.922 234.355 262.936 243.201 264.734C249.013 265.929 254.813 267.03 260.531 267.889C261.954 268.131 263.39 268.319 264.813 268.48C266.236 268.641 267.659 268.829 269.069 268.909L271.19 269.084H273.284C274.67 269.107 276.056 269.035 277.432 268.869L277.15 269.285C273.029 252.344 269.096 236.074 265.431 221.093L265.646 221.322C256.634 218.809 247.474 216.858 238.221 215.482C233.791 214.838 229.455 214.355 225.213 214.14C221.094 213.885 216.962 213.998 212.863 214.475C209.004 214.84 205.261 215.996 201.869 217.872C200.263 218.757 198.744 219.79 197.332 220.959C196.969 221.241 196.647 221.55 196.311 221.845L195.815 222.302L195.573 222.53C195.492 222.53 195.721 222.53 195.385 222.624H192.445L173.169 222.718L145.932 222.812H136.75L136.119 222.785Z" fill="#2D214A"/>
<path d="M194.203 266.252C194.015 266.252 194.203 256.372 194.512 244.21C194.821 232.048 195.331 222.168 195.532 222.181C195.733 222.195 195.532 232.048 195.21 244.223C194.888 256.399 194.391 266.252 194.203 266.252Z" fill="#2D214A"/>
<path d="M183.383 256.935C183.151 256.963 182.917 256.963 182.685 256.935L180.671 257.002L173.261 257.217L148.91 257.284L124.559 257.177L117.176 257.083H115.176C114.944 257.101 114.71 257.101 114.478 257.083C115.365 256.932 116.264 256.869 117.163 256.895C118.908 256.895 121.432 256.801 124.546 256.761C130.775 256.68 139.393 256.653 148.897 256.653C158.401 256.653 167.019 256.653 173.261 256.801L180.631 256.922L182.644 257.002C182.885 256.939 183.135 256.916 183.383 256.935Z" fill="#2D214A"/>
<path d="M184.592 250.841C184.376 250.892 184.155 250.914 183.934 250.908H182.028H175.047L152.012 250.666L128.963 250.277L121.983 250.089L120.09 250.022C119.871 250.037 119.651 250.037 119.432 250.022C120.275 249.884 121.13 249.834 121.983 249.874C123.634 249.874 126.01 249.874 128.963 249.874C134.87 249.874 143.004 249.955 152.012 250.089C161.019 250.223 169.141 250.384 175.034 250.546L182.014 250.76L183.92 250.854C184.142 250.815 184.369 250.81 184.592 250.841Z" fill="#2D214A"/>
<path d="M268.476 257.674C268.24 257.705 268.001 257.705 267.765 257.674H265.725C263.953 257.674 261.389 257.553 258.234 257.298C250.006 256.608 241.864 255.12 233.923 252.855C229.265 251.512 224.956 249.915 220.969 248.734C217.467 247.609 213.826 246.973 210.15 246.841C207.661 246.778 205.178 247.108 202.793 247.821C201.115 248.358 200.243 248.814 200.216 248.76C200.189 248.707 200.417 248.599 200.833 248.385C201.441 248.069 202.068 247.796 202.713 247.566C205.096 246.747 207.603 246.343 210.123 246.371C213.853 246.438 217.555 247.035 221.117 248.143C225.144 249.297 229.467 250.922 234.098 252.17C242 254.421 250.086 255.971 258.261 256.801C261.389 257.11 263.939 257.271 265.711 257.379L267.738 257.499C267.991 257.522 268.24 257.581 268.476 257.674Z" fill="#2D214A"/>
<path d="M268.571 249.284C268.336 249.325 268.095 249.325 267.86 249.284C267.403 249.284 266.719 249.284 265.833 249.284C264.061 249.284 261.497 249.177 258.342 248.922C250.114 248.233 241.972 246.745 234.032 244.478C229.373 243.136 225.064 241.538 221.078 240.357C217.569 239.234 213.925 238.593 210.244 238.451C207.77 238.385 205.301 238.711 202.928 239.417C201.25 239.941 200.378 240.411 200.351 240.344C200.538 240.2 200.74 240.078 200.955 239.981C201.562 239.665 202.19 239.392 202.834 239.162C205.221 238.339 207.733 237.935 210.258 237.968C213.968 238.039 217.648 238.645 221.185 239.766C225.212 240.921 229.521 242.545 234.152 243.794C242.057 246.034 250.142 247.579 258.315 248.412C261.457 248.734 264.007 248.895 265.766 249.002L267.806 249.123C268.067 249.146 268.324 249.2 268.571 249.284Z" fill="#2D214A"/>
<path d="M268.571 240.907C268.335 240.939 268.096 240.939 267.86 240.907C267.39 240.907 266.705 240.907 265.819 240.907C264.047 240.907 261.497 240.8 258.342 240.531C250.114 239.849 241.971 238.366 234.031 236.101C229.36 234.759 225.051 233.148 221.064 231.98C217.564 230.845 213.922 230.203 210.244 230.074C207.765 230.001 205.29 230.328 202.915 231.041C201.237 231.564 200.378 232.021 200.351 231.967C200.324 231.913 200.539 231.819 200.955 231.591C201.564 231.281 202.192 231.007 202.834 230.772C205.22 229.96 207.725 229.556 210.244 229.577C213.98 229.644 217.687 230.245 221.252 231.363C225.279 232.517 229.588 234.128 234.219 235.39C242.124 237.63 250.209 239.175 258.382 240.008C261.523 240.33 264.074 240.478 265.833 240.598L267.86 240.719C268.105 240.746 268.345 240.809 268.571 240.907Z" fill="#2D214A"/>
<path d="M252.208 226.906C252.208 226.906 252.034 226.987 251.698 227.054C251.206 227.166 250.709 227.251 250.208 227.309C248.374 227.542 246.524 227.623 244.677 227.55C239.965 227.47 233.603 226.208 226.689 224.57C223.441 223.834 220.157 223.269 216.85 222.879C214.153 222.573 211.434 222.524 208.728 222.731C206.243 222.998 203.786 223.483 201.385 224.181C201.385 224.181 201.533 224.074 201.855 223.939C202.177 223.805 202.634 223.59 203.197 223.402C204.943 222.83 206.742 222.439 208.567 222.234C211.303 221.952 214.06 221.952 216.796 222.234C220.132 222.582 223.445 223.129 226.716 223.872C233.656 225.443 239.939 226.839 244.57 227.04C246.398 227.158 248.232 227.158 250.06 227.04C250.773 226.95 251.49 226.906 252.208 226.906Z" fill="#2D214A"/>
<path d="M320.375 203.871C316.603 199.911 288.305 176.486 288.305 176.486L266.572 202.287L279.915 209.455C278.841 209.791 260.007 217.925 254.41 220.395C251.349 218.207 244.704 213.683 242.248 213.348C238.999 212.959 229.817 213.348 229.817 213.348C229.817 213.348 225.428 218.503 226.381 219.08C226.381 219.08 220.649 223.281 221.414 225.953L222.179 228.638C221.809 228.553 221.424 228.558 221.057 228.654C220.69 228.749 220.351 228.932 220.069 229.186C219.787 229.44 219.571 229.758 219.438 230.114C219.305 230.469 219.26 230.852 219.306 231.228C219.306 234.37 218.93 235.699 220.649 236.598C220.536 237.623 220.668 238.66 221.034 239.624C221.401 240.588 221.991 241.451 222.756 242.142C224.355 243.744 226.079 245.216 227.911 246.545C227.625 246.885 227.424 247.288 227.326 247.721C227.228 248.155 227.235 248.605 227.346 249.035C227.458 249.465 227.671 249.862 227.968 250.192C228.265 250.523 228.637 250.777 229.052 250.935C232.292 252.474 235.795 253.385 239.375 253.619C240.932 253.619 253.739 249.324 258.464 247.726C258.464 247.726 318.522 231.04 322.388 225.053C325.704 219.912 325.704 209.455 320.375 203.871Z" fill="#FFBE9D"/>
<path d="M309.675 201.978C306.831 201.371 303.913 201.195 301.016 201.454C297.893 201.838 294.834 202.628 291.915 203.804C288.325 205.254 284.82 206.908 281.418 208.757C275.22 212.142 268.848 215.198 262.329 217.912C259.792 218.905 257.711 219.603 256.261 220.02C255.536 220.248 254.919 220.382 254.57 220.476C254.376 220.545 254.172 220.582 253.966 220.583C254.679 220.259 255.415 219.985 256.167 219.765C257.604 219.268 259.644 218.422 262.141 217.442C267.135 215.388 273.793 211.992 281.095 208.139C284.522 206.278 288.059 204.628 291.687 203.199C294.666 202.031 297.792 201.277 300.976 200.958C303.126 200.756 305.293 200.878 307.406 201.32C307.98 201.427 308.545 201.575 309.098 201.763C309.302 201.798 309.498 201.87 309.675 201.978Z" fill="#EB996E"/>
<path d="M240.274 218.543C240.274 218.637 239.509 218.221 238.26 217.858C236.634 217.422 234.939 217.299 233.267 217.496C231.573 217.715 229.899 218.065 228.259 218.543C227.584 218.799 226.873 218.953 226.152 218.999C226.745 218.576 227.409 218.263 228.112 218.073C229.744 217.444 231.449 217.02 233.186 216.811C234.952 216.595 236.745 216.792 238.421 217.388C239.697 217.885 240.381 218.476 240.274 218.543Z" fill="#EB996E"/>
<path d="M232.756 228.826C229.384 229.866 225.761 229.753 222.46 228.504C222.46 228.316 224.782 228.759 227.601 228.826C230.42 228.893 232.716 228.611 232.756 228.826Z" fill="#EB996E"/>
<path d="M234.059 237.538C231.838 238.456 229.429 238.824 227.036 238.611C224.643 238.398 222.336 237.611 220.312 236.316C222.522 237.06 224.796 237.595 227.105 237.914C229.429 237.999 231.757 237.873 234.059 237.538Z" fill="#EB996E"/>
<path d="M239.038 245.015C237.461 246.134 235.6 246.785 233.669 246.894C231.765 247.232 229.804 247.037 228.004 246.33C228.004 246.116 230.541 246.586 233.575 246.196C236.609 245.807 238.931 244.827 239.038 245.015Z" fill="#EB996E"/>
<path d="M133.178 195.642L167.623 243.323L178.054 247.525L176.322 235.739L142.762 188.406C142.183 187.57 141.402 186.894 140.491 186.441C139.581 185.988 138.57 185.773 137.554 185.815H137.406C136.319 185.922 135.28 186.318 134.398 186.962C133.516 187.607 132.822 188.476 132.39 189.48C131.959 190.484 131.804 191.585 131.942 192.668C132.081 193.752 132.507 194.779 133.178 195.642Z" fill="#455A64"/>
<path d="M133.299 195.884C133.218 195.884 133.446 195.146 134.091 194.152C134.967 192.865 136.095 191.769 137.406 190.93C138.724 190.103 140.194 189.546 141.729 189.293C142.354 189.134 143.01 189.134 143.635 189.293C141.586 189.739 139.614 190.486 137.782 191.508C136.073 192.729 134.561 194.205 133.299 195.884Z" fill="#2D214A"/>
<path d="M167.624 243.323C167.624 243.323 167.436 243.203 167.262 242.88C167.006 242.417 166.881 241.893 166.899 241.363C166.908 241.169 166.954 240.978 167.033 240.8L167.248 240.316C167.408 239.947 167.592 239.588 167.799 239.242C168.35 238.482 169.043 237.835 169.839 237.336C170.594 236.841 171.378 236.393 172.188 235.994C172.879 235.663 173.626 235.463 174.39 235.403C175.732 235.323 176.444 235.793 176.403 235.86C175.751 235.816 175.096 235.816 174.443 235.86C173.758 235.976 173.096 236.202 172.483 236.531C171.785 236.92 170.993 237.377 170.228 237.873C169.51 238.331 168.87 238.902 168.336 239.565C168.121 239.887 167.946 240.222 167.772 240.531L167.517 241.001C167.452 241.118 167.407 241.245 167.382 241.377C167.393 242.032 167.474 242.685 167.624 243.323Z" fill="#2D214A"/>
<path d="M169.436 238.424C169.275 238.545 161.798 228.275 152.723 215.523C143.649 202.77 136.413 192.313 136.614 192.192C136.816 192.071 144.253 202.34 153.327 215.107C162.402 227.873 169.597 238.316 169.436 238.424Z" fill="#2D214A"/>
<path d="M173.53 234.907C173.369 235.014 165.999 225.013 157.059 212.583C148.119 200.152 140.95 189.964 141.152 189.856C141.353 189.749 148.682 199.736 157.623 212.167C166.563 224.597 173.678 234.786 173.53 234.907Z" fill="#2D214A"/>
<path d="M177.288 242.29C176.782 242.141 176.248 242.115 175.73 242.213C175.212 242.311 174.725 242.53 174.308 242.854C173.92 243.192 173.617 243.618 173.426 244.097C173.234 244.575 173.159 245.093 173.207 245.606L178.053 247.525L177.288 242.29Z" fill="#2D214A"/>
<path d="M167.677 225.551C170.845 223.631 167.677 216.731 167.677 216.731C167.677 216.731 152.334 207.71 150.092 207.241C148.83 206.972 140.306 207.845 133.044 208.664L108.21 198.287L117.606 192.246L90.5975 167.117C90.5975 167.117 66.4346 184.836 59.1857 192.072C53.7356 197.535 54.7155 208.274 54.7155 208.274C58.3802 217.953 115.123 231.095 119.15 231.994L140.172 244.411C140.172 244.411 149.152 245.593 152.898 246.062C156.643 246.532 157.193 241.284 157.193 241.284C158.031 241.409 158.885 241.346 159.695 241.099C160.505 240.852 161.249 240.428 161.874 239.857C162.499 239.286 162.989 238.582 163.308 237.798C163.627 237.014 163.767 236.168 163.717 235.323C164.281 235.65 164.908 235.853 165.556 235.92C166.204 235.987 166.859 235.916 167.478 235.712C168.096 235.508 168.665 235.175 169.146 234.736C169.627 234.296 170.009 233.76 170.268 233.162C172.537 228.638 167.677 225.551 167.677 225.551Z" fill="#FFBE9D"/>
<path d="M108.075 198.595C107.981 198.703 106.585 197.253 103.967 195.481C102.439 194.425 100.828 193.495 99.1482 192.702C97.0901 191.753 94.9518 190.99 92.7584 190.42C90.5562 189.882 88.3097 189.545 86.0465 189.413C84.1927 189.318 82.3342 189.372 80.489 189.574C77.3344 189.923 75.4416 190.514 75.4014 190.393C75.8198 190.158 76.2729 189.99 76.7438 189.897C77.2631 189.727 77.792 189.588 78.3278 189.48C78.9587 189.36 79.6702 189.172 80.4622 189.078C82.2971 188.807 84.1523 188.7 86.0062 188.755C88.319 188.851 90.6168 189.174 92.8658 189.722C95.1276 190.305 97.3263 191.11 99.4301 192.125C101.128 192.959 102.746 193.948 104.263 195.078C104.92 195.521 105.457 196.031 105.954 196.421C106.376 196.766 106.775 197.138 107.149 197.535C107.498 197.851 107.809 198.207 108.075 198.595Z" fill="#EB996E"/>
<path d="M164.335 235.363C162.95 234.262 161.497 233.248 159.985 232.329C158.36 231.618 156.693 231.008 154.992 230.504C156.846 230.425 158.688 230.831 160.336 231.684C161.985 232.536 163.382 233.805 164.388 235.363H164.335Z" fill="#EB996E"/>
<path d="M169.463 227.295C167.372 226.021 165.207 224.874 162.979 223.859C160.659 223.08 158.297 222.43 155.905 221.912C158.41 221.845 160.903 222.286 163.234 223.209C165.564 224.132 167.683 225.518 169.463 227.282V227.295Z" fill="#EB996E"/>
<path d="M157.354 240.693C157.22 240.854 155.582 239.484 153.327 238.29C151.072 237.095 148.978 236.491 149.018 236.29C152.282 236.606 155.293 238.186 157.408 240.693H157.354Z" fill="#EB996E"/>
<path d="M269.913 94.5198C270.195 89.3382 274.652 84.8144 274.008 79.673C273.363 74.5317 268.034 71.4845 265.161 67.1754C261.685 61.9401 262.007 55.1745 260.973 48.9861C259.614 41.3851 256.053 34.3506 250.731 28.7563C251.578 27.958 252.475 27.2138 253.416 26.5279C256.221 24.4338 259.295 22.3128 260.557 19.0508C261.093 17.4824 261.238 15.8071 260.981 14.1699C260.724 12.5326 260.071 10.9826 259.08 9.6541C257.467 7.37502 255.126 5.71242 252.442 4.93923C249.759 4.16605 246.893 4.32826 244.313 5.39922C241.734 6.47019 239.596 8.38625 238.25 10.8328C236.903 13.2794 236.429 16.1111 236.904 18.8629C234.32 17.7266 231.619 16.8759 228.85 16.3258C226.824 14.5589 224.63 12.9943 222.299 11.6543C218.906 9.92688 215.048 9.33623 211.294 9.96954C207.541 10.6028 204.09 12.4265 201.452 15.1713C200.015 21.1584 198.431 27.132 196.955 33.1325L144.682 67.2157C139.501 65.2961 133.581 68.2493 130.104 72.5852C126.627 76.9211 124.936 82.3041 122.788 87.3515C120.64 92.3988 117.62 97.6073 112.72 100.158C110.035 101.567 106.424 102.561 105.726 105.527C105.584 106.544 105.736 107.579 106.164 108.512C106.592 109.445 107.279 110.235 108.142 110.79C109.897 111.854 111.845 112.561 113.874 112.87L134.48 117.408C137.189 114.901 140.351 112.933 143.796 111.608C142.293 113.756 143.313 116.978 145.313 118.629C147.46 120.165 149.956 121.143 152.575 121.475L197.841 131.1C207.023 133.046 217.077 134.885 225.387 130.523C228.944 128.657 231.897 125.744 235.548 124.093C240.045 122.066 245.16 122.092 250.073 122.28C254.986 122.468 260.047 122.777 264.718 121.233C269.39 119.69 273.659 115.77 274.008 110.857C274.397 105.219 269.658 100.158 269.913 94.5198Z" fill="#2D214A"/>
<path d="M249.778 29.0111C248.036 26.9045 246.109 24.9592 244.019 23.1985C241.785 21.6342 239.407 20.2857 236.917 19.1714C239.691 19.6609 242.287 20.8689 244.448 22.675C246.739 24.2944 248.575 26.4765 249.778 29.0111Z" fill="#FF284F"/>
<path d="M251.416 5.42578C251.416 5.42578 251.738 5.42579 252.168 5.81508C252.783 6.31361 253.248 6.97365 253.51 7.72129C253.892 8.82472 253.989 10.0068 253.792 11.1578C253.578 12.5331 253.222 13.8826 252.731 15.185C251.849 17.5463 250.584 19.7459 248.986 21.6955C248.384 22.548 247.628 23.281 246.758 23.8568C248.976 21.1659 250.786 18.1624 252.127 14.9433C253.107 12.2585 253.698 9.64087 253.094 7.89577C252.76 6.94008 252.181 6.08852 251.416 5.42578Z" fill="#455A64"/>
<path d="M241.039 57.7386C241.039 57.5238 241.039 57.3091 241.039 57.0943C240.261 35.0523 221.856 17.3999 199.814 18.1651C198.754 18.1651 197.653 18.259 196.552 18.3396C194.82 18.4718 193.095 18.6914 191.384 18.9974C172.336 22.4876 158.885 39.7372 159.167 59.1079C159.368 74.8809 159.784 95.8893 160.67 102.064C162.147 112.427 161.932 116.132 161.932 116.132L162.509 140.295C162.67 147.132 165.456 153.644 170.29 158.481C175.124 163.317 181.635 166.107 188.471 166.271C192.016 166.356 195.542 165.733 198.842 164.437C202.142 163.141 205.149 161.198 207.688 158.723C210.227 156.249 212.245 153.291 213.625 150.025C215.004 146.759 215.717 143.25 215.722 139.705V127.274C232.139 125.153 239.71 109.313 240.784 90.372C241.308 80.2773 241.724 79.5121 241.039 57.7386Z" fill="#FFBE9D"/>
<path d="M160.188 72.679C159.745 72.4911 142.549 67.3095 142.978 84.9216C143.408 102.534 160.98 98.4395 161.006 97.9428C161.033 97.4461 160.188 72.679 160.188 72.679Z" fill="#FFBE9D"/>
<path d="M155.462 91.4056C155.381 91.4056 155.166 91.6337 154.643 91.8754C153.925 92.2058 153.107 92.2443 152.361 91.9828C150.482 91.3519 148.844 88.4389 148.683 85.2708C148.602 83.7611 148.859 82.2524 149.435 80.8544C149.587 80.3006 149.872 79.7924 150.265 79.3737C150.658 78.955 151.147 78.6384 151.69 78.4515C152.039 78.3524 152.411 78.3771 152.744 78.5215C153.077 78.6658 153.349 78.921 153.515 79.2435C153.757 79.7268 153.663 80.0892 153.757 80.1161C153.851 80.1429 154.119 79.8073 153.958 79.0824C153.85 78.6505 153.599 78.2675 153.247 77.9951C152.75 77.6499 152.141 77.506 151.542 77.5924C150.823 77.7546 150.158 78.0973 149.608 78.5882C149.058 79.0791 148.643 79.7019 148.401 80.398C147.693 81.9398 147.371 83.6305 147.461 85.3246C147.663 88.8685 149.555 92.1439 152.119 92.8151C152.595 92.9421 153.093 92.9598 153.577 92.8668C154.061 92.7738 154.517 92.5726 154.911 92.2781C155.448 91.8351 155.529 91.4324 155.462 91.4056Z" fill="#EB996E"/>
<path d="M232.327 67.6456C231.844 68.1423 228.958 65.9676 224.836 65.9542C220.715 65.9408 217.681 67.9678 217.238 67.4577C217.024 67.2295 217.507 66.3435 218.836 65.3904C220.626 64.1579 222.758 63.5193 224.93 63.5648C227.073 63.5695 229.157 64.2611 230.877 65.5381C232.193 66.518 232.622 67.4174 232.327 67.6456Z" fill="#2D214A"/>
<path d="M194.995 68.9473C194.512 69.444 191.626 67.2693 187.504 67.2558C183.383 67.2424 180.349 69.2694 179.906 68.7593C179.692 68.5445 180.175 67.6452 181.504 66.6921C183.3 65.4718 185.428 64.8343 187.598 64.8664C189.74 64.8777 191.822 65.5687 193.545 66.8397C194.807 67.8197 195.237 68.7325 194.995 68.9473Z" fill="#2D214A"/>
<path d="M192.162 57.725C191.826 58.7721 188.376 58.7989 184.577 59.7654C180.778 60.732 177.758 62.1414 176.845 61.3897C176.429 61.0138 176.711 60.0473 177.825 58.9332C179.387 57.4903 181.306 56.4895 183.383 56.0336C185.515 55.4966 187.747 55.4966 189.88 56.0336C191.491 56.5169 192.31 57.2015 192.162 57.725Z" fill="#2D214A"/>
<path d="M231.373 55.3354C230.46 56.5435 226.5 57.3356 222.527 57.0805C218.553 56.8255 216.057 55.6442 216.969 54.3958C217.882 53.1473 221.842 52.3956 225.816 52.6506C229.789 52.9057 232.326 54.1138 231.373 55.3354Z" fill="#2D214A"/>
<path d="M203.022 100.158C203.089 100.4 202.525 100.843 201.438 100.99C199.98 101.131 198.522 100.717 197.356 99.8318C196.189 98.9462 195.399 97.6535 195.142 96.2114C194.995 95.1241 195.263 94.4663 195.518 94.4663C196.042 94.4663 196.471 96.7886 198.512 98.3189C200.552 99.8493 202.901 99.6882 203.022 100.158Z" fill="#2D214A"/>
<path d="M215.654 127.274C215.654 127.274 194.579 127.61 189.599 123.972C189.599 123.972 193.33 134.187 215.654 133.1V127.274Z" fill="#EB996E"/>
<path d="M208.459 77.2164C208.714 77.1493 209.197 78.0487 209.801 79.579C210.096 80.3308 210.418 81.257 210.741 82.2638C210.884 82.7829 211.045 83.3198 211.224 83.8747C211.453 84.5102 211.593 85.1742 211.64 85.848C211.672 86.2748 211.616 86.7037 211.475 87.1079C211.334 87.5121 211.112 87.8829 210.821 88.1972C210.279 88.7352 209.577 89.0836 208.821 89.1905C208.191 89.2823 207.547 89.2272 206.942 89.0294C206.459 88.86 206.006 88.6154 205.599 88.3046C204.257 87.177 203.76 86.2373 203.908 86.0762C204.056 85.9151 204.968 86.5057 206.297 87.1501C206.97 87.5144 207.752 87.624 208.499 87.4589C208.865 87.3832 209.198 87.1955 209.452 86.9219C209.562 86.7831 209.644 86.6239 209.692 86.4534C209.741 86.2829 209.755 86.1045 209.734 85.9285C209.69 85.4039 209.586 84.886 209.425 84.3848C209.291 83.821 209.17 83.2706 209.036 82.7336C208.808 81.6865 208.633 80.7201 208.499 79.9146C208.23 78.3172 208.163 77.3372 208.459 77.2164Z" fill="#2D214A"/>
<path d="M180.618 87.2847C180.457 87.2847 180.39 86.8417 180.484 86.3584C180.578 85.8752 180.793 85.5396 180.967 85.5664C181.142 85.5933 181.209 86.0094 181.101 86.4927C180.994 86.9759 180.793 87.3115 180.618 87.2847Z" fill="#EB996E"/>
<path d="M188.028 85.7394C187.867 85.7394 187.652 85.6187 187.558 85.337C187.465 85.0554 187.558 84.7738 187.693 84.7201C187.827 84.6665 188.068 84.8408 188.162 85.1225C188.256 85.4041 188.149 85.6858 188.028 85.7394Z" fill="#EB996E"/>
<path d="M184.256 90.1842C184.082 90.1842 183.894 89.8352 183.854 89.3654C183.813 88.8955 183.854 88.4928 184.082 88.4794C184.31 88.4659 184.431 88.8284 184.485 89.2983C184.538 89.7681 184.431 90.1708 184.256 90.1842Z" fill="#EB996E"/>
<path d="M174.967 89.3384C174.805 89.3384 174.779 88.8552 174.967 88.3854C175.154 87.9155 175.356 87.5665 175.53 87.6202C175.705 87.6739 175.718 88.1034 175.53 88.5733C175.342 89.0431 175.141 89.419 174.967 89.3384Z" fill="#EB996E"/>
<path d="M223.924 85.5659C223.749 85.5659 223.575 85.2572 223.534 84.841C223.494 84.4249 223.534 84.049 223.762 84.0356C223.991 84.0221 224.111 84.3443 224.165 84.7605C224.219 85.1766 224.098 85.5525 223.924 85.5659Z" fill="#EB996E"/>
<path d="M230.81 85.3919C230.636 85.3919 230.488 85.016 230.488 84.5461C230.488 84.0763 230.636 83.687 230.81 83.687C230.985 83.687 231.133 84.0629 231.133 84.5461C231.133 85.0294 230.985 85.3919 230.81 85.3919Z" fill="#EB996E"/>
<path d="M236.502 85.0427C236.327 85.0427 236.113 84.7205 236.019 84.2507C235.925 83.7808 236.019 83.3647 236.166 83.3379C236.314 83.311 236.542 83.66 236.65 84.1299C236.757 84.5997 236.676 85.0158 236.502 85.0427Z" fill="#EB996E"/>
<path d="M227.561 91.2176C227.387 91.2176 227.36 90.7478 227.561 90.2779C227.762 89.8081 227.95 89.4591 228.125 89.5128C228.299 89.5665 228.313 89.9826 228.125 90.4524C227.937 90.9222 227.722 91.2713 227.561 91.2176Z" fill="#EB996E"/>
<path d="M234.031 90.3721C233.857 90.3721 233.682 90.1036 233.629 89.7278C233.575 89.3519 233.629 89.0163 233.857 89.0029C234.085 88.9895 234.219 89.2714 234.259 89.6472C234.3 90.0231 234.206 90.3452 234.031 90.3721Z" fill="#EB996E"/>
<path d="M255.496 115.273C257.063 114.679 258.49 113.765 259.684 112.589C261.059 111.175 262.112 109.48 262.772 107.622C263.683 105.176 264.019 102.553 263.752 99.9568C263.38 96.8127 262.506 93.7487 261.161 90.8823C259.819 87.7411 257.953 84.5597 256.154 81.1097C254.165 77.5414 252.722 73.6953 251.872 69.6994C251.491 67.5544 251.432 65.3646 251.697 63.2023C251.966 61.0142 252.449 58.8395 252.905 56.6649C253.403 54.536 253.699 52.3653 253.791 50.1811C253.869 48.0844 253.475 45.997 252.637 44.0733C250.847 40.4832 248.084 37.4689 244.663 35.3746C241.468 33.2536 238.153 31.6159 235.186 29.8574C232.219 28.0989 229.481 26.4343 227.024 24.8369C222.111 21.6286 218.285 18.823 215.694 16.7825C214.352 15.7892 213.412 14.9837 212.741 14.4334L212.003 13.8024C211.828 13.6548 211.748 13.5742 211.761 13.5742C211.775 13.5742 211.869 13.5742 212.043 13.7487L212.835 14.326L215.869 16.5678C218.554 18.5008 222.366 21.2527 227.293 24.3939C229.749 25.9645 232.488 27.629 235.481 29.3338C238.475 31.0387 241.764 32.6764 245.026 34.8242C248.563 36.971 251.421 40.0753 253.268 43.7779C254.144 45.7955 254.562 47.9826 254.489 50.1811C254.397 52.4104 254.096 54.6261 253.59 56.7991C253.134 58.9872 252.65 61.135 252.395 63.2694C252.128 65.3635 252.178 67.4859 252.543 69.5652C253.371 73.4985 254.782 77.2857 256.731 80.801C258.49 84.2375 260.329 87.4458 261.685 90.6272C263.037 93.5596 263.903 96.6926 264.249 99.9031C264.489 102.571 264.112 105.258 263.148 107.756C262.433 109.644 261.32 111.356 259.886 112.777C258.968 113.658 257.905 114.376 256.745 114.898C256.443 115.024 256.134 115.132 255.818 115.22L255.496 115.273Z" fill="#455A64"/>
<path d="M242.65 47.5766C239.021 36.2418 231.523 26.5436 221.467 20.1785L209.063 11.9497C206.274 7.9262 202.471 4.71155 198.039 2.63147C193.607 0.551383 188.704 -0.320236 183.826 0.104946C178.949 0.530128 174.271 2.23701 170.265 5.0526C166.26 7.8682 163.07 11.6925 161.019 16.1379C160.08 18.1783 159.355 20.3798 158.402 22.4203C159.19 17.9345 158.265 13.3163 155.811 9.47968C152.549 4.66051 146.173 1.89517 140.602 3.54631C137.894 4.46603 135.548 6.22067 133.9 8.55797C132.253 10.8953 131.389 13.6948 131.433 16.554C131.58 19.4127 132.509 22.1761 134.119 24.5431C135.729 26.9102 137.957 28.79 140.561 29.9779C141.681 30.4756 142.851 30.8492 144.052 31.0921C141.223 31.3731 138.46 32.1216 135.876 33.307C133.507 34.5924 131.577 36.5582 130.335 38.9509C129.093 41.3436 128.597 44.0534 128.909 46.7309C129.299 49.6305 130.614 52.7045 129.339 55.3356C128.346 57.3626 126.117 58.3828 124.292 59.7118C122.003 61.4428 120.229 63.7644 119.16 66.4273C118.091 69.0903 117.767 71.9941 118.224 74.8271C115.251 78.6311 112.879 82.8686 111.19 87.3918C106.881 98.6947 115.365 99.2183 118.009 101.675L133.567 85.5662C135.62 84.7609 137.794 84.3071 139.998 84.2238C143.236 84.1225 146.477 84.2211 149.703 84.5191C153.479 84.8656 157.286 84.5476 160.952 83.5794C162.952 82.9819 164.804 81.9712 166.389 80.6128C168.007 79.1577 169.321 77.3966 170.255 75.4311C172.007 71.3141 173.194 66.9793 173.785 62.5442C174.645 58.1278 175.772 53.765 178.188 50.3419C179.367 48.6699 180.915 47.2919 182.712 46.3148C184.475 45.4271 186.363 44.8115 188.31 44.4891C192.136 43.7777 195.921 43.6166 199.385 42.7172C202.664 41.972 205.591 40.1298 207.681 37.4953C209.285 35.2804 210.402 32.7502 210.956 30.0719C211.393 28.079 211.672 26.0546 211.788 24.0177C211.788 23.3062 211.869 22.6753 211.882 22.0981C219.022 33.1758 228.711 42.382 240.14 48.9459C240.999 49.4425 242.355 49.7916 242.824 48.9459C242.943 48.4839 242.881 47.9939 242.65 47.5766ZM211.345 23.9774C211.16 25.9814 210.828 27.969 210.352 29.9242C209.774 32.5066 208.653 34.9364 207.063 37.0523C205.049 39.5349 202.244 41.2505 199.116 41.9117C195.76 42.7574 192.002 42.8917 188.082 43.5763C186.036 43.9066 184.053 44.5495 182.202 45.4825C180.276 46.5131 178.613 47.9739 177.343 49.7513C174.765 53.3892 173.624 57.8727 172.752 62.3295C172.178 66.6838 171.022 70.9414 169.315 74.9882C168.445 76.8386 167.218 78.4991 165.704 79.8745C164.22 81.1606 162.482 82.1209 160.603 82.6934C157.045 83.6477 153.348 83.9792 149.676 83.6734C146.421 83.418 143.153 83.3597 139.89 83.4989C138.062 83.613 136.257 83.965 134.521 84.5459L135.527 83.7405C141.265 79.3626 148.377 77.1776 155.583 77.579C157.228 77.6237 158.847 77.1545 160.214 76.2366C165.583 74.7734 169.396 67.793 171.544 62.2086C173.383 57.4297 173.061 51.7246 176.135 47.6572C178.376 44.7039 182.014 43.2407 185.531 42.4487C189.048 41.6567 192.794 41.4016 196.27 40.2606C199.912 39.0031 203.175 36.8443 205.757 33.9854C208.339 31.1265 210.155 27.6605 211.037 23.9103C211.242 23.031 211.328 22.1279 211.292 21.2256C211.372 21.3464 211.466 21.4672 211.533 21.588C211.493 22.2995 211.426 23.1049 211.345 23.9774Z" fill="#2D214A"/>
<path d="M117.902 101.38C117.815 101.287 117.734 101.188 117.66 101.084C117.513 100.883 117.271 100.588 117.016 100.171C116.219 98.9703 115.561 97.6823 115.056 96.3322C114.26 94.179 113.807 91.9141 113.714 89.6203C113.593 86.5749 114.162 83.5416 115.378 80.7471C116.86 77.3582 119.196 74.4118 122.157 72.1961C125.325 69.7261 129.5 68.4643 133.782 67.5246C138.065 66.5849 142.736 65.7526 146.629 63.041C148.574 61.6403 150.16 59.8006 151.26 57.6715C152.39 55.4606 153.29 53.1395 153.945 50.7448C155.435 45.9256 156.469 40.905 159.315 36.851C160.691 34.857 162.534 33.2302 164.684 32.1124C166.753 31.1196 168.97 30.4713 171.248 30.1928C175.665 29.6022 179.867 29.7498 183.733 29.2129C187.311 28.7354 190.772 27.6119 193.948 25.8972C199.883 22.7538 204.643 17.7769 207.52 11.7081C207.721 11.3054 207.869 10.9698 208.003 10.7013C208.055 10.5865 208.113 10.4744 208.178 10.3657C207.556 12.2042 206.708 13.9583 205.654 15.5876C202.789 20.0682 198.848 23.7601 194.19 26.3267C190.967 28.0925 187.452 29.2612 183.813 29.7767C179.893 30.3405 175.665 30.2197 171.342 30.8237C169.132 31.094 166.982 31.7291 164.979 32.7031C162.942 33.7815 161.193 35.3328 159.878 37.2269C157.194 41.1198 156.133 46.0866 154.643 50.9327C153.951 53.3739 153.016 55.7394 151.851 57.9936C150.693 60.2116 149.028 62.1249 146.992 63.578C142.964 66.4104 138.145 67.1621 133.903 68.1421C129.661 69.122 125.567 70.2631 122.466 72.6391C119.558 74.7872 117.248 77.6429 115.754 80.935C114.548 83.6585 113.961 86.6157 114.036 89.5934C114.093 91.8456 114.505 94.0745 115.257 96.198C115.949 98.0156 116.836 99.753 117.902 101.38Z" fill="#455A64"/>
<path d="M220.018 74.7465C219.938 75.6638 220.219 76.5761 220.8 77.2902C221.381 78.0043 222.218 78.4641 223.132 78.5723C223.577 78.6425 224.031 78.6232 224.469 78.5155C224.906 78.4078 225.317 78.2138 225.679 77.945C226.04 77.6762 226.344 77.3379 226.573 76.95C226.802 76.5621 226.951 76.1324 227.011 75.6861C227.091 74.7708 226.813 73.8603 226.234 73.1466C225.656 72.4329 224.823 71.9717 223.911 71.8603C223.465 71.79 223.01 71.8092 222.572 71.9168C222.134 72.0244 221.721 72.2181 221.359 72.4868C220.996 72.7555 220.691 73.0937 220.461 73.4817C220.231 73.8697 220.08 74.2996 220.018 74.7465Z" fill="#2D214A"/>
<path d="M184.001 74.7465C183.921 75.6638 184.202 76.5761 184.783 77.2902C185.365 78.0043 186.201 78.4641 187.115 78.5723C187.56 78.6425 188.015 78.6232 188.452 78.5155C188.889 78.4078 189.301 78.2138 189.662 77.945C190.023 77.6762 190.327 77.3379 190.556 76.95C190.785 76.5621 190.934 76.1324 190.995 75.6861C191.075 74.7708 190.796 73.8603 190.218 73.1466C189.639 72.4329 188.806 71.9717 187.894 71.8603C187.448 71.79 186.993 71.8092 186.555 71.9168C186.117 72.0244 185.705 72.2181 185.342 72.4868C184.98 72.7555 184.675 73.0937 184.444 73.4817C184.214 73.8697 184.063 74.2996 184.001 74.7465Z" fill="#2D214A"/>
<path d="M159.032 19.6147C158.966 20.6529 158.678 21.6647 158.186 22.5814C157.135 24.8729 155.518 26.8593 153.488 28.3537C151.453 29.8443 149.076 30.7998 146.575 31.1324C145.552 31.3248 144.501 31.3019 143.487 31.0653C143.487 30.9445 144.669 30.9848 146.494 30.6358C148.867 30.1829 151.112 29.2162 153.072 27.8033C155.003 26.3494 156.597 24.4947 157.743 22.3666C158.616 20.6886 158.925 19.6147 159.032 19.6147Z" fill="#FF284F"/>
<path d="M154.978 26.6086C154.569 26.6721 154.152 26.6721 153.743 26.6086C152.631 26.4605 151.537 26.195 150.481 25.8166C146.945 24.5748 143.883 22.2643 141.718 19.205C139.554 16.1457 138.394 12.489 138.4 8.74138C138.389 7.62275 138.502 6.50637 138.735 5.41227C138.79 5.00131 138.913 4.60222 139.098 4.23096C139.232 4.23096 138.775 5.96267 138.896 8.72799C139.024 12.3478 140.208 15.8511 142.302 18.8064C144.397 21.7617 147.31 24.0398 150.682 25.3602C153.233 26.3267 154.991 26.4743 154.978 26.6086Z" fill="#455A64"/>
<path d="M207.211 11.0906C207.211 11.0906 206.687 10.4329 205.56 9.50662C203.934 8.22625 202.006 7.38498 199.962 7.06347C196.927 6.57584 193.816 6.98161 191.008 8.23134C187.572 9.79653 184.402 11.8891 181.611 14.4332C178.564 17.118 175.745 19.7356 172.846 21.776C170.324 23.654 167.461 25.022 164.415 25.8032C162.355 26.3348 160.206 26.4308 158.106 26.0851C157.54 25.9856 156.983 25.8373 156.442 25.6421C156.066 25.5078 155.878 25.4273 155.891 25.4005C155.905 25.3736 156.683 25.6152 158.147 25.8166C160.204 26.0492 162.286 25.8852 164.281 25.3334C167.24 24.5193 170.019 23.1529 172.47 21.3062C175.302 19.2658 178.081 16.6078 181.155 13.9499C183.999 11.3614 187.24 9.24496 190.753 7.68096C193.674 6.42407 196.901 6.05977 200.029 6.63392C202.135 6.99513 204.103 7.92327 205.721 9.31867C206.158 9.6975 206.55 10.1254 206.889 10.5939C207.13 10.8893 207.238 11.0638 207.211 11.0906Z" fill="#455A64"/>
<path d="M210.916 12.2583C211.116 12.6697 211.295 13.0908 211.452 13.5201C211.972 14.7114 212.592 15.8566 213.305 16.9433C216.063 20.8856 219.565 24.251 223.615 26.8501C226.111 28.5818 228.984 30.3268 231.951 32.3136C235.203 34.3733 238.199 36.8111 240.878 39.5759C243.89 42.6536 245.971 46.521 246.878 50.7311C247.71 55.1744 246.636 59.8191 245.214 64.2355C244.502 66.4639 243.683 68.6117 243.173 70.7864C242.6 72.8966 242.567 75.1173 243.079 77.2433C243.729 79.2619 244.733 81.1484 246.046 82.8142C247.281 84.5056 248.596 86.1165 249.684 87.8347C251.766 91.1483 252.708 95.0511 252.368 98.9497C252.135 102.311 251.222 105.59 249.684 108.588C247.367 112.847 244.385 116.708 240.851 120.025C239.629 121.22 238.649 122.119 237.978 122.71L237.213 123.395C237.043 123.547 236.949 123.614 236.931 123.596C237.001 123.505 237.077 123.42 237.159 123.341L237.884 122.616L240.649 119.837C244.079 116.474 246.976 112.609 249.241 108.373C250.729 105.424 251.61 102.206 251.831 98.9094C252.126 95.1332 251.183 91.3638 249.147 88.1703C248.073 86.4923 246.757 84.9083 245.495 83.19C244.136 81.4641 243.095 79.5094 242.421 77.4178C241.877 75.1828 241.905 72.8467 242.502 70.6253C243.025 68.3701 243.844 66.2223 244.542 64.0073C245.965 59.6312 246.999 55.1073 246.207 50.8385C245.325 46.7494 243.311 42.9907 240.394 39.992C237.768 37.2505 234.826 34.8307 231.629 32.7834C228.662 30.7833 225.829 29.0113 223.333 27.2393C219.265 24.5767 215.777 21.1204 213.077 17.0775C212.379 15.9642 211.79 14.7864 211.318 13.5604C211.157 13.1309 211.077 12.7953 210.996 12.5805C210.953 12.4779 210.926 12.3692 210.916 12.2583Z" fill="#455A64"/>
<path d="M309.971 266.855L362.606 272.99L371.761 268.614L362.874 262.587L310.991 256.076C310.084 255.946 309.159 256.051 308.303 256.38C307.448 256.709 306.691 257.251 306.105 257.955L306.024 258.063C305.433 258.849 305.063 259.78 304.954 260.758C304.844 261.737 304.999 262.726 305.402 263.624C305.805 264.522 306.442 265.295 307.245 265.864C308.049 266.432 308.99 266.774 309.971 266.855Z" fill="#FF284F"/>
<path d="M310.187 266.923C310.106 266.923 309.77 266.372 309.488 265.339C309.162 263.97 309.121 262.549 309.368 261.164C309.605 259.781 310.131 258.464 310.911 257.298C311.529 256.412 312.052 255.955 312.106 256.049C311.184 257.692 310.493 259.453 310.052 261.285C309.831 263.161 309.876 265.059 310.187 266.923Z" fill="#2D214A"/>
<path d="M362.606 272.99C362.606 272.99 361.814 273.138 360.848 272.292C360.728 272.165 360.628 272.02 360.552 271.862L360.364 271.419C360.216 271.088 360.091 270.747 359.988 270.399C359.82 269.566 359.82 268.708 359.988 267.876C360.105 267.062 360.285 266.259 360.525 265.473C360.722 264.808 361.046 264.188 361.478 263.647C362.23 262.707 362.995 262.519 363.022 262.587C363.049 262.654 362.458 263.029 361.868 263.929C361.541 264.462 361.296 265.041 361.143 265.647C360.968 266.345 360.794 267.151 360.673 267.97C360.553 268.721 360.553 269.487 360.673 270.238C360.754 270.574 360.861 270.896 360.968 271.205L361.129 271.661C361.164 271.773 361.219 271.877 361.291 271.97C361.895 272.722 362.673 272.869 362.606 272.99Z" fill="#2D214A"/>
<path d="M360.472 268.802C360.472 268.99 349.061 267.741 335.06 265.996C321.059 264.251 309.716 262.694 309.743 262.493C309.77 262.291 321.14 263.567 335.141 265.298C349.142 267.03 360.485 268.614 360.472 268.802Z" fill="#2D214A"/>
<path d="M360.606 263.93C360.606 264.118 349.451 262.95 335.745 261.312C322.039 259.674 310.951 258.198 310.964 258.01C310.978 257.822 322.12 258.99 335.839 260.627C349.558 262.265 360.633 263.755 360.606 263.93Z" fill="#2D214A"/>
<path d="M367.801 265.929C367.399 266.179 367.06 266.519 366.811 266.922C366.561 267.325 366.409 267.78 366.364 268.252C366.354 268.718 366.455 269.18 366.658 269.6C366.861 270.02 367.161 270.386 367.532 270.668L371.761 268.614L367.801 265.929Z" fill="#2D214A"/>
<defs>
<linearGradient id="paint0_linear" x1="189.458" y1="130.482" x2="189.458" y2="209.804" gradientUnits="userSpaceOnUse">
<stop stop-color="#FF284F"/>
<stop offset="1" stop-color="#FF284F"/>
</linearGradient>
</defs>
</svg>
